<?xml version="1.0" encoding="UTF-8"?>
<svg width="16" height="16" viewBox="0 0 16 16"  xmlns="http://www.w3.org/2000/svg">
    <path d="M9.99006 2C9.99006 1.44772 10.439 1 10.9975 1L13.9925 1C14.5489 1 15 1.44386 15 2C15 2.55228 14.5511 3 13.9925 3H10.9975C10.4411 3 9.99006 2.55614 9.99006 2Z" fill="#50E3C2" />
    <path d="M10 6C10 5.44772 10.4463 5 10.9975 5H14.0025C14.5534 5 15 5.44386 15 6C15 6.55228 14.5537 7 14.0025 7H10.9975C10.4466 7 10 6.55614 10 6Z" fill="#50E3C2" />
    <path d="M7 10C7 9.44771 7.44631 9 7.99754 9H14.0025C14.5534 9 15 9.44386 15 10C15 10.5523 14.5537 11 14.0025 11H7.99754C7.44662 11 7 10.5561 7 10Z" fill="#50E3C2" />
    <path d="M0 14C0 13.4477 0.44892 13 1.00748 13H13.9925C14.5489 13 15 13.4439 15 14C15 14.5523 14.5511 15 13.9925 15H1.00748C0.451066 15 0 14.5561 0 14Z" fill="#50E3C2" />
    <path d="M3 2C3 1.44772 3.44772 1 4 1C4.55228 1 5 1.44772 5 2V8C5 8.55228 4.55228 9 4 9C3.44772 9 3 8.55228 3 8V2Z" fill="#50E3C2" />
    <path d="M7 4C7.55228 4 8 4.44772 8 5C8 5.55228 7.55228 6 7 6L1 6C0.447716 6 -2.41411e-08 5.55228 0 5C2.41411e-08 4.44771 0.447715 4 1 4L7 4Z" fill="#50E3C2" />
</svg>
