<?xml version="1.0" encoding="UTF-8"?>
<svg width="16" height="16" viewBox="0 0 16 16" xmlns="http://www.w3.org/2000/svg" xmlns:xlink="http://www.w3.org/1999/xlink">
<path d="M9.25664 9.37312L8.15515 13.7791C8.11475 13.9407 7.8851 13.9407 7.8447 13.7791L6.74321 9.37312C6.72888 9.31579 6.68412 9.27104 6.62679 9.2567L2.22082 8.15521C2.05922 8.11481 2.05923 7.88516 2.22082 7.84476L6.62679 6.74327C6.68412 6.72894 6.72888 6.68418 6.74321 6.62685L7.8447 2.22088C7.8851 2.05929 8.11475 2.05929 8.15515 2.22088L9.25664 6.62685C9.27097 6.68418 9.31573 6.72894 9.37306 6.74327L13.779 7.84476C13.9406 7.88516 13.9406 8.11481 13.779 8.15521L9.37306 9.2567C9.31573 9.27104 9.27097 9.31579 9.25664 9.37312Z" fill="#50E3C2"/>
<path d="M3.89786 12.0127L1.34449 12.3319C1.25296 12.3434 1.25027 12.475 1.34126 12.4902L3.14356 12.7906C3.17728 12.7962 3.2037 12.8226 3.20932 12.8564L3.5097 14.6587C3.52487 14.7496 3.65656 14.747 3.668 14.6554L3.98717 12.102C3.99364 12.0503 3.94963 12.0063 3.89786 12.0127Z" fill="#50E3C2"/>
<path d="M12.102 12.0127L14.6554 12.3319C14.7469 12.3434 14.7496 12.475 14.6586 12.4902L12.8563 12.7906C12.8226 12.7962 12.7962 12.8226 12.7905 12.8564L12.4901 14.6587C12.475 14.7496 12.3433 14.747 12.3319 14.6554L12.0127 12.102C12.0062 12.0503 12.0502 12.0063 12.102 12.0127Z" fill="#50E3C2"/>
<path d="M3.89786 3.98723L1.34449 3.66806C1.25296 3.65662 1.25027 3.52493 1.34126 3.50976L3.14356 3.20938C3.17728 3.20376 3.2037 3.17734 3.20932 3.14362L3.5097 1.34132C3.52487 1.25033 3.65656 1.25302 3.668 1.34455L3.98717 3.89792C3.99364 3.94969 3.94963 3.9937 3.89786 3.98723Z" fill="#50E3C2"/>
<path d="M12.102 3.98723L14.6554 3.66806C14.7469 3.65662 14.7496 3.52493 14.6586 3.50976L12.8563 3.20938C12.8226 3.20376 12.7962 3.17734 12.7905 3.14362L12.4901 1.34132C12.475 1.25033 12.3433 1.25302 12.3319 1.34455L12.0127 3.89792C12.0062 3.94969 12.0502 3.9937 12.102 3.98723Z" fill="#50E3C2"/>
</svg>
