<?xml version="1.0" encoding="UTF-8"?>
<svg width="16px" height="16px" viewBox="0 0 16 16" version="1.1" xmlns="http://www.w3.org/2000/svg" xmlns:xlink="http://www.w3.org/1999/xlink">
<path d="M6.95631 1.74533C7.02087 0.809582 7.90812 0.0866185 8.8638 0.325539L9.12522 0.390894C9.58765 0.506502 9.99923 0.846997 10.1366 1.35549C10.357 2.1715 10.6699 3.86719 10.1994 5.86503C10.3353 5.84643 10.484 5.82891 10.6422 5.81453C11.3547 5.74976 12.311 5.74326 13.1581 6.02563C13.6764 6.19839 14.1524 6.70589 14.3576 7.29795C14.5421 7.83034 14.5183 8.45983 14.1237 9.03125C14.1824 9.1496 14.2275 9.27312 14.262 9.39387C14.3392 9.66402 14.375 9.96109 14.375 10.25C14.375 10.5389 14.3392 10.8359 14.262 11.1061C14.2235 11.2409 14.1718 11.3792 14.1026 11.5098C14.2709 11.8966 14.2091 12.3289 14.0993 12.6581C13.9915 12.9816 13.8121 13.2966 13.6107 13.5589C13.6647 13.7113 13.6875 13.8711 13.6875 14.0234C13.6875 14.3293 13.5982 14.6485 13.4341 14.9355C13.099 15.5221 12.4371 16 11.5 16H8C7.39536 16 6.93094 15.9187 6.53434 15.7821C6.14176 15.6469 5.83632 15.4639 5.56354 15.2977L5.51594 15.2686C5.0118 14.9609 4.51741 14.6591 3.44792 14.5457C2.68233 14.4645 2 13.8451 2 13.0006V8.99963C2 8.1494 2.68549 7.5676 3.35693 7.38444C4.20585 7.15287 4.93091 6.5976 5.48879 5.97417C6.04895 5.34819 6.4031 4.69538 6.52757 4.33624C6.72691 3.76109 6.88374 2.79692 6.95631 1.74533Z" fill="#50E3C2" />
</svg>
