<svg xmlns="http://www.w3.org/2000/svg" width="608" height="396" fill="none"><g clip-path="url(#a)"><path fill="#FE006B" fill-opacity=".9" d="m145 50-6.86-2.362 1.289-3.745 6.86 2.363z"/><path fill="#23A2CD" fill-opacity=".9" d="m476 93 10.117-4.934 2.613 5.357-10.117 4.934z"/><path fill="#23A2CD" fill-opacity=".75" d="m526 185 3.163-2.848 3.988 4.43-3.163 2.847z"/><path fill="#FE006B" fill-opacity=".9" d="m250 238-5.125-3.588 3.992-5.702 5.125 3.589z"/><path fill="#23A2CD" fill-opacity=".65" d="m20 193 5.95 7.09-5.332 4.474-5.95-7.09z"/><path fill="#FFCD32" d="m579 156 18.665 12.121-2.156 3.322-18.666-12.122z"/><path fill="#FFCD32" fill-opacity=".85" d="m272 89 9.907-2.654 1.8 6.722-9.906 2.655z"/><path fill="#23A2CD" fill-opacity=".6" d="m345 79-15.702-4.207 1.542-5.757 15.703 4.207zM202 395l-2.468-4.64 3.497-1.86 2.467 4.64z"/><path fill="#23A2CD" d="m499 285-16.01 15.46-4.834-5.006 16.01-15.46z"/><path fill="#FE006B" fill-opacity=".6" d="m325 82 5.586 8.601-4.16 2.702-5.586-8.602z"/><path fill="#FE006B" fill-opacity=".45" d="m65 96 7.792-10.724 3.203 2.327-7.791 10.725z"/><path fill="#FE006B" fill-opacity=".9" d="m209 282-12.445-18.451 4.112-2.774 12.445 18.451z"/><path fill="#FFCD32" d="m419 359 16.12-8.57 1.858 3.496-16.119 8.57z"/><path fill="#FE006B" fill-opacity=".9" d="m558 202-3.876-7.29 6.145-3.267 3.876 7.29z"/><path fill="#FE006B" fill-opacity=".85" d="m126 248-10.25-.358.173-4.957 10.25.358z"/><path fill="#FFCD32" d="m129 377-11.388-21.417 4.38-2.328 11.387 21.416z"/><path fill="#FE006B" d="m164 20 2.242 6.9-7.57 2.46-2.242-6.9z"/><path fill="#FFCD32" fill-opacity=".85" d="m184 66-12.165-1.494.97-7.9 12.165 1.493z"/><path fill="#FFCD32" d="m190 125 8.2 9.108-5.171 4.657-8.201-9.108z"/><path fill="#23A2CD" fill-opacity=".35" d="m233 18 4.147-.957 1.34 5.807-4.146.957z"/><circle cx="497.52" cy="321.52" r="1.52" fill="#FFCD32" fill-opacity=".65"/><circle cx="142.52" cy="6.52" r="3.52" fill="#FFCD32" fill-opacity=".6"/><circle cx="482.02" cy="109.02" r="4.02" fill="#FFCD32" fill-opacity=".65"/><circle cx="161.02" cy="181.02" r="3.02" fill="#FE006B" fill-opacity=".75"/><circle cx="184.52" cy="353.52" r="3.52" fill="#FE006B" fill-opacity=".85"/><circle cx="485.52" cy="270.52" r="1.52" fill="#FFCD32"/><circle cx="283.52" cy="252.52" r="1.52" fill="#FFCD32" fill-opacity=".75"/><circle cx="606.52" cy="308.52" r="1.52" fill="#FE006B" fill-opacity=".85"/><circle cx="488.52" cy="241.52" r="4.52" fill="#FE006B"/><circle cx="339.02" cy="24.02" r="2.02" fill="#FE006B" fill-opacity=".65"/><circle cx="106.02" cy="314.02" r="3.02" fill="#FFCD32" fill-opacity=".65"/><circle cx="573.02" cy="314.02" r="2.02" fill="#FE006B"/><circle cx="499.52" cy="189.52" r="2.52" fill="#23A2CD" fill-opacity=".35"/><circle cx="445.52" cy="313.52" r="1.52" fill="#FE006B" fill-opacity=".35"/><circle cx="96.02" cy="278.02" r="2.02" fill="#23A2CD" fill-opacity=".75"/><circle cx="368.02" cy="30.02" r="3.02" fill="#FFCD32" fill-opacity=".6"/><circle cx="559.02" cy="242.02" r="3.02" fill="#FE006B" fill-opacity=".65"/><circle cx="535.52" cy="395.52" r="1.52" fill="#FFCD32" fill-opacity=".45"/><circle cx="354.02" cy="127.02" r="4.02" fill="#FFCD32" fill-opacity=".85"/><circle cx="109.52" cy="113.52" r="4.52" fill="#FE006B"/><circle cx="7.02" cy="157.02" r="4.02" fill="#FFCD32" fill-opacity=".85"/><circle cx="480.52" cy="283.52" r="2.52" fill="#FFCD32" fill-opacity=".6"/><path fill="#23A2CD" fill-opacity=".35" d="m196.299 374.991-4.116 4.262-5.325-2.597.824-5.868 5.835-1.028 2.782 5.231Z"/><path fill="#FE006B" fill-opacity=".6" d="m129.124 49.002-3.126 1.662-3.002-1.876.124-3.538 3.126-1.662 3.002 1.876-.124 3.538Z"/><path fill="#FFCD32" fill-opacity=".35" d="m505.955 242.061-6.106-1.984 1.984-6.106 6.106 1.984-1.984 6.106Z"/><path fill="#FFCD32" fill-opacity=".45" d="m212.525 16.485 2.669-4.622 5.22 1.11.558 5.307-4.875 2.171-3.572-3.966Z"/><path fill="#FE006B" fill-opacity=".85" d="m148.082 314.522-.789-4.471 3.478-2.918 4.266 1.553.789 4.471-3.478 2.918-4.266-1.553Z"/><path fill="#FFCD32" d="m481.223 334.073-1.184 5.131-3.851-3.591 5.035-1.54Z"/><path fill="#23A2CD" fill-opacity=".85" d="m100.164 362.667 2.498-8.169 8.168 2.498-2.497 8.168-8.169-2.497Z"/><path fill="#FFCD32" fill-opacity=".45" d="m303.108 330.338-5.316-.465-1.201-5.2 4.575-2.749 4.028 3.501-2.086 4.913Z"/><path fill="#23A2CD" fill-opacity=".45" d="m71.678 52.672-6.02-1.17 4.023-4.628 1.997 5.798Z"/><path fill="#FFCD32" d="m515.848 369.581 4.267-6.571 6.571 4.267-4.267 6.571-6.571-4.267Z"/><path fill="#FE006B" d="m219.45 254.656-4.691-2.391 4.416-2.868.275 5.259Z"/><path fill="#FE006B" fill-opacity=".65" d="m265.177 330.889 7.074.619 1.597 6.918-6.086 3.657-5.359-4.658 2.774-6.536Z"/><path fill="#FE006B" fill-opacity=".35" d="m91.972 285.648-4.178-2.818.352-5.028 4.53-2.209 4.178 2.818-.352 5.028-4.53 2.209Z"/><path fill="#FE006B" d="m297.071 373.848-4.843-5.193 3.443-6.211 6.97 1.355.865 7.048-6.435 3.001Z"/><path fill="#FFCD32" fill-opacity=".75" d="m267.553 159.734 5.819-2.714 2.713 5.819-5.819 2.714-2.713-5.819Z"/><path fill="#FFCD32" d="m357.268 97.667-.368-5.252 4.733 2.308-4.365 2.944ZM89.543 94.86l3.771-1.448 3.14 2.543-.632 3.99-3.772 1.448-3.14-2.542.633-3.99ZM376.034 379.259l-.225 4.293-4.293-.225.225-4.293 4.293.225Z"/><path fill="#FFCD32" fill-opacity=".6" d="m572.84 246.048 2.703-3.002 3.952.84 1.248 3.842-2.703 3.003-3.952-.84-1.248-3.843Z"/><path fill="#23A2CD" fill-opacity=".75" d="m377.437 90.314 5.816-1.13 2.873 5.181-4.041 4.334-5.37-2.504.722-5.881Z"/><path fill="#23A2CD" fill-opacity=".9" d="m169.735 356.95-2.214 3.685-3.685-2.214 2.214-3.686 3.685 2.215Z"/><path fill="#FFCD32" d="m181.527 158.614 5.523 3.451-1.576 6.319-6.497.454-2.439-6.038 4.989-4.186Z"/><path fill="#FE006B" d="m151.318 294.403 1.635 7.692-7.479-2.43 5.844-5.262Z"/><path fill="#FE006B" fill-opacity=".6" d="m385.039 257.071.725 2.716 2.738-.636-1.99 1.986 1.92 2.054-2.715-.731-.819 2.689-.724-2.716-2.739.636 1.991-1.986-1.92-2.054 2.715.731.818-2.689Z"/><path fill="#FE006B" fill-opacity=".75" d="m319.238 23.627-.042 3.533 2.654 2.332-3.533-.042-2.333 2.654.043-3.533-2.654-2.333 3.533.043 2.332-2.654Z"/><path fill="#23A2CD" d="m382.945 377.034 4.173-.507-.372-4.187 2.525 3.361 3.441-2.416-1.648 3.867 3.812 1.772-4.173.507.372 4.187-2.525-3.36-3.441 2.415 1.648-3.867-3.812-1.772Z"/><path fill="#FE006B" d="m404.506 161.507.999 2.252 2.283-.926-1.451 1.992 1.943 1.514-2.449-.261-.34 2.44-.999-2.251-2.283.925 1.45-1.991-1.943-1.514 2.45.26.34-2.44Z"/><path fill="#FE006B" fill-opacity=".75" d="m341.614 326.998 3.595-.699.446-3.635 1.775 3.203 3.595-.699-2.498 2.678 1.776 3.203-3.319-1.547-2.497 2.678.446-3.635-3.319-1.547Z"/><path fill="#FFCD32" d="m264.124 108.998 1.653-1.97-1.363-2.181 2.385.963 1.653-1.97-.179 2.565 2.385.964-2.496.622-.179 2.566-1.363-2.181-2.496.622Z"/><path fill="#FE006B" fill-opacity=".35" d="m467.511 71.041-3.8-2.194-3.261 2.937.912-4.293-3.8-2.194 4.364-.459.913-4.292 1.784 4.009 4.365-.459-3.261 2.937 1.784 4.008Z"/><path fill="#FE006B" fill-opacity=".6" d="m428.484 272.29 1.332 2.865 2.907-1.238-1.816 2.586 2.526 1.898-3.147-.279-.381 3.136-1.332-2.865-2.907 1.238 1.816-2.586-2.526-1.898 3.147.279.381-3.136Z"/><path fill="#23A2CD" fill-opacity=".75" d="m520.856 197.435-2.181 1.363.622 2.495-1.97-1.653-2.181 1.363.964-2.385-1.971-1.653 2.566.18.963-2.385.623 2.495 2.565.18Z"/><path fill="#FFCD32" d="m471.84 280.952-2.658 1.68-.454 3.111-1.68-2.657-3.111-.454 2.657-1.681.454-3.111 1.681 2.657 3.111.455Z"/><path fill="#FFCD32" fill-opacity=".75" d="m58.46 132-1.496-4.044-4.044-1.496 4.044-1.496 1.496-4.044 1.496 4.044L64 126.46l-4.044 1.496L58.46 132Z"/><path fill="#23A2CD" fill-opacity=".75" d="m113 75.04-2.034.58.514 2.053-1.52-1.472-1.52 1.472.514-2.052-2.034-.581 2.034-.58-.514-2.053 1.52 1.472 1.52-1.472-.514 2.052 2.034.581Z"/><path fill="#FFCD32" fill-opacity=".45" d="m321.627 47.761 3.533.043 2.332-2.654-.042 3.533 2.654 2.333-3.533-.043-2.333 2.654.043-3.533-2.654-2.333Z"/><path fill="#FFCD32" fill-opacity=".6" d="m460.033 257.264.948 3.537 3.657.191-3.071 1.995.947 3.537-2.845-2.305-3.071 1.995 1.312-3.419-2.846-2.304 3.657.191 1.312-3.418ZM363.347 377.847l1.745 2.132 2.755.063-2.132 1.745-.063 2.755-1.745-2.132-2.754-.063 2.131-1.745.063-2.755Z"/><path fill="#FFCD32" fill-opacity=".75" d="m435.542 299.14-1.598 2.461 1.847 2.281-2.835-.759-1.599 2.461-.153-2.931-2.836-.759 2.741-1.052-.154-2.932 1.847 2.282 2.74-1.052Z"/><path fill="#FFCD32" fill-opacity=".9" d="m414.948 362.778-3.302-1.99-2.096 3.236.072-3.854-3.85-.197 3.374-1.865-1.754-3.433 3.302 1.99 2.096-3.236-.072 3.854 3.85.197-3.374 1.865 1.754 3.433Z"/><path fill="#FFCD32" fill-opacity=".75" d="m259.606 387.434 1.545 1.445 1.494-1.498-.478 2.061 2.044.545-2.024.616.55 2.043-1.545-1.445-1.494 1.498.478-2.061-2.044-.545 2.024-.616-.55-2.043Z"/></g><defs><clipPath id="a"><path fill="#fff" d="M0 0h608v396H0z"/></clipPath></defs></svg>