<svg xmlns="http://www.w3.org/2000/svg" width="618" height="172" fill="none"><path fill="#fff" d="M293.963 10a5 5 0 0 1 5 5v159H10V15a5 5 0 0 1 5-5h278.963Z"/><path stroke="#000" stroke-width="4" d="M293.963 10a5 5 0 0 1 5 5v159H10V15a5 5 0 0 1 5-5h278.963Z"/><path fill="#F9FAFB" stroke="#E5E5E5" d="M242.741 32.593H51.037v123.555h191.704V32.593Z"/><path fill="#FAFAFA" stroke="#E5E5E5" stroke-miterlimit="10" d="M242.741 12H51.037v20.593h191.704V12ZM296.963 12h-54.222v151.956h54.222V12Z"/><path fill="#FAFAFA" stroke="#E5E5E5" stroke-miterlimit="10" d="M296.963 12h-8.296v151.956h8.296V12ZM296.963 164H51.037v8h245.926v-8ZM242.741 156.148H51.037V164h191.704v-7.852Z"/><path fill="#E5F0F5" d="M219.541 35.704H74.681c-.621 0-1.126.504-1.126 1.126v47.674c0 .622.505 1.126 1.126 1.126h144.86c.622 0 1.126-.504 1.126-1.126V36.83c0-.622-.504-1.126-1.126-1.126Z"/><path fill="#D4E2E9" d="M220.667 72H73.555v13.63h147.112V72Z"/><path fill="#fff" d="M219.541 93.778H74.681c-.621 0-1.126.504-1.126 1.126v7.674c0 .622.505 1.126 1.126 1.126h144.86c.622 0 1.126-.504 1.126-1.126v-7.674c0-.622-.504-1.126-1.126-1.126Z"/><path fill="#23A2CD" d="M219.541 103.926H74.681a1.35 1.35 0 0 1-1.348-1.348v-7.674a1.35 1.35 0 0 1 1.349-1.349H219.54a1.35 1.35 0 0 1 1.348 1.349v7.674a1.35 1.35 0 0 1-1.348 1.348ZM74.681 94a.905.905 0 0 0-.903.904v7.674c0 .498.406.903.903.903h144.86a.904.904 0 0 0 .903-.903v-7.674a.905.905 0 0 0-.903-.904H74.681Z"/><path fill="#fff" d="M219.541 112.593H74.681c-.621 0-1.126.504-1.126 1.125v7.675c0 .621.505 1.125 1.126 1.125h144.86c.622 0 1.126-.504 1.126-1.125v-7.675c0-.621-.504-1.125-1.126-1.125ZM219.541 131.407H74.681c-.621 0-1.126.505-1.126 1.126v21.304c0 .622.505 1.126 1.126 1.126h144.86c.622 0 1.126-.504 1.126-1.126v-21.304c0-.621-.504-1.126-1.126-1.126Z"/><path fill="#FFCE33" d="M292.519 164.889h-14.963c-.819 0-1.482.663-1.482 1.481v3.26c0 .818.663 1.481 1.482 1.481h14.963A1.48 1.48 0 0 0 294 169.63v-3.26a1.48 1.48 0 0 0-1.481-1.481Z"/><path fill="#23A2CD" d="M177.852 156.889H162a1.48 1.48 0 0 0-1.481 1.481v3.26a1.48 1.48 0 0 0 1.481 1.481h15.852a1.48 1.48 0 0 0 1.481-1.481v-3.26a1.48 1.48 0 0 0-1.481-1.481Z"/><path fill="#197791" d="M155.778 158.963h-19.111a.741.741 0 0 0-.741.741V160c0 .409.332.741.741.741h19.111a.74.74 0 0 0 .74-.741v-.296a.74.74 0 0 0-.74-.741ZM129.407 158.963h-11.703a.741.741 0 0 0-.741.741V160c0 .409.332.741.741.741h11.703a.74.74 0 0 0 .741-.741v-.296a.74.74 0 0 0-.741-.741ZM255.63 167.407H266a.741.741 0 0 1 0 1.482h-10.37a.741.741 0 0 1 0-1.482Z"/><path fill="#868686" d="M269.259 167.407H270a.741.741 0 0 1 0 1.482h-.741a.74.74 0 0 1 0-1.482Z"/><path fill="#A0744A" d="M224.519 85.63a2.37 2.37 0 1 0 0-4.74 2.37 2.37 0 0 0 0 4.74Z"/><path fill="#982A04" d="M69.26 103.704a2.37 2.37 0 1 0 0-4.74 2.37 2.37 0 0 0 0 4.74Z"/><path fill="#535355" d="M67.778 27.407a4.148 4.148 0 1 0 0-8.296 4.148 4.148 0 0 0 0 8.296Z"/><path fill="#982A04" d="M69.26 122.519a2.371 2.371 0 1 0-.002-4.742 2.371 2.371 0 0 0 .001 4.742Z"/><path fill="#A0744A" d="M60.667 27.407a4.148 4.148 0 1 0 0-8.296 4.148 4.148 0 0 0 0 8.296Z"/><path fill="#868686" d="M53.26 14.963h34.962a.444.444 0 1 1 0 .889H53.26a.444.444 0 1 1 0-.889ZM244.963 23.111h7.556a.444.444 0 0 1 0 .889h-7.556a.443.443 0 1 1 0-.889ZM244.963 27.555h5.185a.444.444 0 1 1 0 .89h-5.185a.443.443 0 1 1 0-.89ZM244.963 40.444h5.185a.444.444 0 1 1 0 .89h-5.185a.443.443 0 1 1 0-.89ZM244.963 53.333h4.593a.443.443 0 1 1 0 .89h-4.593a.443.443 0 1 1 0-.89ZM244.963 66.222h8.296a.444.444 0 1 1 0 .89h-8.296a.443.443 0 1 1 0-.89ZM244.963 79.555h2.963a.443.443 0 1 1 0 .89h-2.963a.443.443 0 1 1 0-.89ZM244.963 85.481h14.667a.443.443 0 1 1 0 .89h-14.667a.443.443 0 1 1 0-.89ZM244.963 93.63h12.296a.444.444 0 1 1 0 .889h-12.296a.443.443 0 1 1 0-.89Z"/><path fill="#000" d="M244.963 98.074h4.593a.443.443 0 1 1 0 .889h-4.593a.443.443 0 1 1 0-.889ZM244.963 102.222h10.222a.445.445 0 1 1 0 .889h-10.222a.444.444 0 1 1 0-.889ZM244.963 105.778h10.222a.444.444 0 1 1 0 .889h-10.222a.444.444 0 1 1 0-.889ZM244.963 109.333h10.222a.445.445 0 1 1 0 .889h-10.222a.444.444 0 1 1 0-.889ZM244.963 112.889h10.222a.444.444 0 1 1 0 .889h-10.222a.444.444 0 1 1 0-.889Z"/><path fill="#868686" d="M277.704 102.222h8.148a.444.444 0 1 1 0 .889h-8.148a.444.444 0 1 1 0-.889ZM277.704 105.778h8.148a.444.444 0 1 1 0 .889h-8.148a.445.445 0 1 1 0-.889ZM277.704 109.333h8.148a.444.444 0 1 1 0 .889h-8.148a.444.444 0 1 1 0-.889ZM277.704 112.889h8.148a.444.444 0 1 1 0 .889h-8.148a.445.445 0 1 1 0-.889ZM244.963 122.963h12.296a.444.444 0 1 1 0 .889h-12.296a.444.444 0 1 1 0-.889Z"/><path fill="#EDF1F2" d="M284.815 30.222H246c-.818 0-1.481.663-1.481 1.482v2.666c0 .819.663 1.482 1.481 1.482h38.815c.818 0 1.481-.663 1.481-1.482v-2.666c0-.819-.663-1.482-1.481-1.482ZM284.815 43.26H246c-.818 0-1.481.663-1.481 1.48v2.667c0 .819.663 1.482 1.481 1.482h38.815c.818 0 1.481-.663 1.481-1.482v-2.666c0-.818-.663-1.482-1.481-1.482ZM284.815 56.296H246c-.818 0-1.481.663-1.481 1.482v2.666c0 .819.663 1.482 1.481 1.482h38.815c.818 0 1.481-.663 1.481-1.482v-2.666c0-.819-.663-1.482-1.481-1.482ZM284.815 69.333H246c-.818 0-1.481.664-1.481 1.482v2.666c0 .819.663 1.482 1.481 1.482h38.815c.818 0 1.481-.663 1.481-1.481v-2.667c0-.818-.663-1.482-1.481-1.482ZM284.815 126.963H246a1.48 1.48 0 0 0-1.481 1.481v16.889c0 .819.663 1.482 1.481 1.482h38.815c.818 0 1.481-.663 1.481-1.482v-16.889a1.48 1.48 0 0 0-1.481-1.481Z"/><path fill="#000" d="M252.639 129.037h7.416c.148 0 .268.199.268.444 0 .246-.12.445-.268.445h-7.416c-.149 0-.269-.199-.269-.445 0-.245.12-.444.269-.444Z"/><path fill="#A0A3A6" d="M248.074 128h1.778a1.482 1.482 0 0 1 0 2.963h-1.778a1.482 1.482 0 0 1 0-2.963Z"/><path fill="#23A2CD" d="M284.815 84.74h-1.185a.592.592 0 0 0-.593.593v1.186c0 .327.265.592.593.592h1.185a.592.592 0 0 0 .592-.593v-1.185a.592.592 0 0 0-.592-.592Z"/><path fill="#868686" d="M214 15.704h11.852a.443.443 0 1 1 0 .889H214a.443.443 0 1 1 0-.89ZM245.407 14.815H254a.89.89 0 0 1 0 1.778h-8.593a.89.89 0 0 1 0-1.778Z"/><path fill="#23A2CD" d="M230.148 15.704h1.63a.443.443 0 1 1 0 .889h-1.63a.443.443 0 1 1 0-.89Z"/><path fill="#197791" d="M236.667 15.704h1.629a.444.444 0 1 1 0 .889h-1.629a.444.444 0 1 1 0-.89Z"/><path fill="#fff" d="M90.593 14.963h10.518a.444.444 0 1 1 0 .889H90.593a.444.444 0 1 1 0-.889ZM102.296 22.667H74.444a.74.74 0 0 0-.74.74v.297c0 .409.331.74.74.74h27.852a.741.741 0 0 0 .741-.74v-.297c0-.409-.332-.74-.741-.74Z"/><path fill="#000" d="M74.445 18.963h35.851a.741.741 0 0 1 0 1.482H74.444a.741.741 0 0 1 0-1.482ZM76.074 37.926h8.74a.741.741 0 0 1 0 1.481h-8.74a.741.741 0 0 1 0-1.481ZM76.074 95.852h10.222a.741.741 0 0 1 0 1.481H76.074a.741.741 0 0 1 0-1.481Z"/><path fill="#868686" d="M76.074 99.26h32.148a.741.741 0 0 1 0 1.481H76.074a.741.741 0 0 1 0-1.482Z"/><path fill="#000" d="M76.074 114.815h10.222a.741.741 0 0 1 0 1.481H76.074a.74.74 0 0 1 0-1.481Z"/><path fill="#868686" d="M76.074 118.222h24.445a.741.741 0 0 1 0 1.482H76.074a.741.741 0 0 1 0-1.482Z"/><path fill="#000" d="M76.074 133.778h12.593a.741.741 0 0 1 0 1.481H76.074a.74.74 0 0 1 0-1.481Z"/><path fill="#868686" d="M76.074 137.185h141.037a.741.741 0 0 1 0 1.482H76.074a.741.741 0 0 1 0-1.482ZM76.074 140.593h141.037a.74.74 0 1 1 0 1.481H76.074a.741.741 0 0 1 0-1.481ZM76.074 144h125.333a.741.741 0 0 1 0 1.481H76.074a.74.74 0 1 1 0-1.481ZM76.074 147.407h141.037a.741.741 0 0 1 0 1.482H76.074a.741.741 0 0 1 0-1.482ZM76.074 150.815H206.89a.741.741 0 0 1 0 1.481H76.074a.74.74 0 0 1 0-1.481ZM76.074 41.333h8.74a.741.741 0 0 1 0 1.482h-8.74a.741.741 0 0 1 0-1.482ZM76.667 72.889h11.407a.741.741 0 0 1 0 1.481H76.667a.741.741 0 0 1 0-1.481ZM84.519 78.074h11.407a.74.74 0 0 1 0 1.482H84.519a.741.741 0 0 1 0-1.482ZM84.519 81.037h3.555a.741.741 0 0 1 0 1.481H84.52a.741.741 0 0 1 0-1.481ZM76.074 47.111h29.482a.74.74 0 0 1 0 1.482H76.074a.741.741 0 0 1 0-1.482ZM76.074 52.889h136a.741.741 0 0 1 0 1.481h-136a.741.741 0 0 1 0-1.481ZM76.074 61.333H82a.741.741 0 0 1 0 1.482h-5.926a.741.741 0 0 1 0-1.482ZM76.074 67.111h16.889a.74.74 0 0 1 0 1.482H76.074a.741.741 0 0 1 0-1.482Z"/><path fill="#EDF1F2" d="M94 26.815H74.444a.889.889 0 0 0-.889.889v2.37c0 .491.398.889.89.889H94c.49 0 .889-.398.889-.889v-2.37a.889.889 0 0 0-.889-.89Z"/><path fill="#FFF6DA" d="M105.407 26.815h-8.148a.889.889 0 0 0-.889.889v2.37c0 .491.398.889.89.889h8.147a.889.889 0 0 0 .889-.889v-2.37a.889.889 0 0 0-.889-.89Z"/><path fill="#C0DDE6" d="M122.889 26.815h-14.222a.889.889 0 0 0-.889.889v2.37c0 .491.398.889.889.889h14.222a.889.889 0 0 0 .889-.889v-2.37a.889.889 0 0 0-.889-.89Z"/><path fill="url(#a)" d="M56.37 170.518a2.518 2.518 0 1 0 .001-5.036 2.518 2.518 0 0 0 0 5.036Z"/><path fill="#A0744A" d="M62.444 170.518a2.518 2.518 0 1 0 .001-5.036 2.518 2.518 0 0 0 0 5.036Z"/><path fill="#982A04" d="M68.519 170.518a2.518 2.518 0 1 0 0-5.036 2.518 2.518 0 0 0 0 5.036Z"/><path fill="#85B746" d="M248.815 138.742a2.518 2.518 0 1 0 0-5.037 2.52 2.52 0 0 0 0 5.037Z"/><path fill="#A0744A" d="M254.889 138.742a2.518 2.518 0 1 0 0-5.037 2.52 2.52 0 0 0 0 5.037Z"/><path fill="#982A04" d="M260.963 138.742a2.518 2.518 0 1 0 0-5.037 2.52 2.52 0 0 0 0 5.037Z"/><path fill="#191919" d="M50.519 12H12v160h38.519V12Z"/><path fill="#23A2CD" d="M50.519 85.926H12v5.63h38.519v-5.63Z"/><path fill="#982A04" d="M17.926 170.37a4.148 4.148 0 1 0 0-8.296 4.148 4.148 0 0 0 0 8.296Z"/><path fill="#262627" d="M47.26 162.222H36.295c-.818 0-1.481.663-1.481 1.482v4.74c0 .819.663 1.482 1.481 1.482H47.26c.819 0 1.482-.663 1.482-1.482v-4.74c0-.819-.663-1.482-1.482-1.482ZM40.593 13.481H14.519a.74.74 0 0 0-.741.741v4.148c0 .41.332.741.74.741h26.075a.74.74 0 0 0 .74-.74v-4.149a.74.74 0 0 0-.74-.74Z"/><path fill="#868686" d="M14.963 23.111h7.407a.444.444 0 1 1 0 .889h-7.407a.444.444 0 1 1 0-.889Z"/><path fill="#D1D1D1" d="M15.26 28.593h12.444a.741.741 0 0 1 0 1.481H15.259a.74.74 0 0 1 0-1.481Z"/><path fill="#868686" d="M14.963 69.333h7.407a.444.444 0 1 1 0 .89h-7.407a.444.444 0 1 1 0-.89Z"/><path fill="#D1D1D1" d="M18.815 74.074h12a.741.741 0 0 1 0 1.482h-12a.741.741 0 0 1 0-1.482ZM15.26 35.704h13.48a.741.741 0 0 1 0 1.481H15.26a.74.74 0 0 1 0-1.481ZM15.26 42.815h11.11a.741.741 0 0 1 0 1.481H15.26a.741.741 0 0 1 0-1.481ZM15.26 49.926h17.036a.741.741 0 0 1 0 1.481H15.26a.741.741 0 0 1 0-1.481ZM14.963 57.037H32a.741.741 0 0 1 0 1.482H14.963a.741.741 0 0 1 0-1.482ZM14.963 64.148H32a.741.741 0 0 1 0 1.482H14.963a.741.741 0 0 1 0-1.482Z"/><path fill="#23A2CD" d="M44.889 56.296h1.778a1.482 1.482 0 0 1 0 2.963h-1.778a1.482 1.482 0 0 1 0-2.963Z"/><path fill="#323234" d="M44.889 63.407h1.778a1.482 1.482 0 0 1 0 2.963h-1.778a1.482 1.482 0 0 1 0-2.963Z"/><path fill="#FFCE33" d="M15.704 73.333a1.482 1.482 0 1 1-.001 2.964 1.482 1.482 0 0 1 0-2.964Z"/><path fill="#D1D1D1" d="M18.815 81.037h23.852a.74.74 0 0 1 0 1.481H18.815a.741.741 0 0 1 0-1.481Z"/><path fill="#FFCE33" d="M15.704 80.296a1.482 1.482 0 1 1-.001 2.964 1.482 1.482 0 0 1 0-2.964Z"/><path fill="#fff" d="M18.815 88h9.926a.741.741 0 0 1 0 1.481h-9.926a.741.741 0 0 1 0-1.481ZM15.704 87.26a1.482 1.482 0 1 1-.001 2.963 1.482 1.482 0 0 1 0-2.964Z"/><path fill="#D1D1D1" d="M18.815 94.963H28a.741.741 0 0 1 0 1.482h-9.185a.741.741 0 0 1 0-1.482Z"/><path fill="#38AD69" d="M15.704 94.222a1.482 1.482 0 1 1-.001 2.964 1.482 1.482 0 0 1 0-2.964Z"/><path fill="#D1D1D1" d="M18.815 101.926h24.889a.741.741 0 0 1 0 1.481h-24.89a.74.74 0 1 1 0-1.481Z"/><path fill="#38AD69" d="M15.704 101.185a1.482 1.482 0 1 1-.002 2.965 1.482 1.482 0 0 1 .002-2.965Z"/><path fill="#D1D1D1" d="M18.815 108.889h12.74a.741.741 0 0 1 0 1.481h-12.74a.74.74 0 1 1 0-1.481Z"/><path fill="#868686" d="M15.704 108.148a1.482 1.482 0 1 1-.002 2.965 1.482 1.482 0 0 1 .002-2.965Z"/><path fill="#D1D1D1" d="M18.815 115.852h18.37a.741.741 0 0 1 0 1.481h-18.37a.74.74 0 0 1 0-1.481Z"/><path fill="#868686" d="M15.704 115.111a1.482 1.482 0 1 1-.002 2.965 1.482 1.482 0 0 1 .002-2.965Z"/><path fill="#D1D1D1" d="M18.815 122.815H45.48a.741.741 0 0 1 0 1.481H18.815a.74.74 0 0 1 0-1.481Z"/><path fill="#868686" d="M15.704 122.074a1.482 1.482 0 1 1-.002 2.965 1.482 1.482 0 0 1 .002-2.965Z"/><path fill="#FFCE33" d="m43.26 14.519 1.547 2.051-1.548.912v-2.963Z"/><path fill="#E84F83" d="M43.26 14.519h5.036l-2.07 1.217-2.967-1.217Z"/><path fill="#B7DFF2" d="m43.26 14.519 1.547 2.051 1.42-.834-2.968-1.217Z"/><path fill="#fff" d="M292.834 17.46a1.05 1.05 0 1 0 0-2.101 1.05 1.05 0 0 0 0 2.1Z"/><path fill="#868686" d="M292.834 23.78a1.05 1.05 0 1 0 0-2.1 1.05 1.05 0 0 0 0 2.1Z"/><path fill="#999" d="M292.834 30.102a1.05 1.05 0 1 0 0-2.1 1.05 1.05 0 0 0 0 2.1ZM292.834 36.422a1.05 1.05 0 1 0 0-2.1 1.05 1.05 0 0 0 0 2.1ZM292.834 42.744a1.05 1.05 0 1 0 0-2.1 1.05 1.05 0 0 0 0 2.1ZM292.834 49.065a1.05 1.05 0 1 0 0-2.1 1.05 1.05 0 0 0 0 2.1Z"/><g clip-path="url(#b)"><path fill="#F9FAFB" stroke="#E5E5E5" stroke-miterlimit="10" d="M398 12h-38.519v160H398V12Z"/><path fill="#FAFAFA" d="M605.407 12H398v160h207.407V12Z"/><path fill="#191919" d="M359.481 12h-38.518v160h38.518V12Z"/><path fill="#23A2CD" d="M359.515 33.63h-38.518v5.63h38.518v-5.63Z"/><path fill="#982A04" d="M326.889 170.37a4.148 4.148 0 1 0 0-8.296 4.148 4.148 0 0 0 0 8.296Z"/><path fill="#262627" d="M356.222 162.222h-10.963c-.818 0-1.481.663-1.481 1.482v4.74c0 .819.663 1.482 1.481 1.482h10.963c.818 0 1.482-.663 1.482-1.482v-4.74c0-.819-.664-1.482-1.482-1.482ZM349.556 13.481h-26.075a.74.74 0 0 0-.74.741v4.148c0 .41.331.741.74.741h26.075a.74.74 0 0 0 .74-.74v-4.149a.74.74 0 0 0-.74-.74Z"/><path fill="#868686" d="M323.926 23.111h7.407a.444.444 0 1 1 0 .889h-7.407a.444.444 0 1 1 0-.889Z"/><path fill="#D1D1D1" d="M324.222 28.593h12.445a.74.74 0 0 1 0 1.481h-12.445a.741.741 0 0 1 0-1.481Z"/><path fill="#868686" d="M323.926 69.333h7.407a.444.444 0 1 1 0 .89h-7.407a.444.444 0 1 1 0-.89Z"/><path fill="#D1D1D1" d="M327.778 74.074h12a.74.74 0 0 1 0 1.482h-12a.741.741 0 0 1 0-1.482Z"/><path fill="#fff" d="M324.222 35.704h13.482a.74.74 0 0 1 0 1.481h-13.482a.741.741 0 0 1 0-1.481Z"/><path fill="#D1D1D1" d="M324.222 42.815h11.111a.741.741 0 0 1 0 1.481h-11.111a.741.741 0 0 1 0-1.481ZM324.222 49.926h17.037a.741.741 0 0 1 0 1.481h-17.037a.741.741 0 0 1 0-1.481ZM323.926 57.037h17.037a.741.741 0 0 1 0 1.482h-17.037a.741.741 0 0 1 0-1.482ZM323.926 64.148h17.037a.741.741 0 0 1 0 1.482h-17.037a.741.741 0 0 1 0-1.482Z"/><path fill="#23A2CD" d="M353.852 56.296h1.777a1.482 1.482 0 0 1 0 2.963h-1.777a1.482 1.482 0 0 1 0-2.963Z"/><path fill="#323234" d="M353.852 63.407h1.777a1.482 1.482 0 0 1 0 2.963h-1.777a1.482 1.482 0 0 1 0-2.963Z"/><path fill="#FFCE33" d="M324.667 73.333a1.482 1.482 0 1 1-.002 2.965 1.482 1.482 0 0 1 .002-2.965Z"/><path fill="#D1D1D1" d="M327.778 81.037h23.852a.74.74 0 0 1 0 1.481h-23.852a.741.741 0 0 1 0-1.481Z"/><path fill="#FFCE33" d="M324.667 80.296a1.482 1.482 0 1 1-.002 2.964 1.482 1.482 0 0 1 .002-2.964Z"/><path fill="#D1D1D1" d="M327.778 88h9.926a.74.74 0 0 1 0 1.481h-9.926a.741.741 0 0 1 0-1.481Z"/><path fill="#FFCE33" d="M324.667 87.26a1.482 1.482 0 1 1-.002 2.964 1.482 1.482 0 0 1 .002-2.965Z"/><path fill="#D1D1D1" d="M327.778 94.963h9.185a.741.741 0 0 1 0 1.482h-9.185a.741.741 0 0 1 0-1.482Z"/><path fill="#38AD69" d="M324.667 94.222a1.482 1.482 0 1 1-.002 2.964 1.482 1.482 0 0 1 .002-2.964Z"/><path fill="#D1D1D1" d="M327.778 101.926h24.889a.74.74 0 0 1 0 1.481h-24.889a.74.74 0 1 1 0-1.481Z"/><path fill="#38AD69" d="M324.667 101.185a1.482 1.482 0 0 1 0 2.963 1.482 1.482 0 0 1 0-2.963Z"/><path fill="#D1D1D1" d="M327.778 108.889h12.74a.741.741 0 0 1 0 1.481h-12.74a.74.74 0 1 1 0-1.481Z"/><path fill="#868686" d="M324.667 108.148a1.482 1.482 0 0 1 0 2.963 1.482 1.482 0 0 1 0-2.963Z"/><path fill="#D1D1D1" d="M327.778 115.852h18.37a.741.741 0 0 1 0 1.481h-18.37a.741.741 0 0 1 0-1.481Z"/><path fill="#868686" d="M324.667 115.111a1.482 1.482 0 0 1 0 2.963 1.482 1.482 0 0 1 0-2.963Z"/><path fill="#D1D1D1" d="M327.778 122.815h26.666a.741.741 0 0 1 0 1.481h-26.666a.741.741 0 0 1 0-1.481Z"/><path fill="#868686" d="M324.667 122.074a1.482 1.482 0 0 1 0 2.963 1.482 1.482 0 0 1 0-2.963Z"/><path fill="#FFCE33" d="m352.222 14.519 1.548 2.051-1.548.912v-2.963Z"/><path fill="#E84F83" d="M352.222 14.519h5.037l-2.069 1.217-2.968-1.217Z"/><path fill="#B7DFF2" d="m352.222 14.519 1.548 2.051 1.42-.834-2.968-1.217Z"/><path fill="#23A2CD" d="M395.071 47.26h-32.593c-.654 0-1.185.53-1.185 1.184v4.297c0 .654.531 1.185 1.185 1.185h32.593c.655 0 1.185-.53 1.185-1.185v-4.297c0-.654-.53-1.185-1.185-1.185Z"/><path fill="#8F9190" d="M362.561 23.111h17.037a.741.741 0 0 1 0 1.482h-17.037a.741.741 0 0 1 0-1.482Z"/><path fill="#868686" d="M401.367 17.333h10.009c.24 0 .436.332.436.741s-.196.74-.436.74h-10.009c-.24 0-.435-.331-.435-.74s.195-.74.435-.74ZM401.284 31.555h8.101c.194 0 .353.332.353.741 0 .41-.157.741-.353.741h-8.101c-.194 0-.352-.332-.352-.74 0-.41.157-.741.352-.741ZM403.118 62.815h11.313c.271 0 .492.332.492.74 0 .41-.221.741-.492.741h-11.313c-.271 0-.491-.332-.491-.74 0-.41.22-.741.491-.741ZM402.917 117.926h6.678c.16 0 .291.332.291.741s-.131.74-.291.74h-6.678c-.16 0-.29-.331-.29-.74s.13-.741.29-.741Z"/><path fill="#101010" d="M416.153 17.333h12.734c.306 0 .554.332.554.741s-.247.74-.554.74h-12.734c-.306 0-.554-.331-.554-.74s.247-.74.554-.74Z"/><path fill="#8F9190" d="M362.855 29.778h23.775c.57 0 1.034.332 1.034.74 0 .41-.463.741-1.034.741h-23.775c-.571 0-1.034-.332-1.034-.74 0-.41.462-.741 1.034-.741ZM362.89 36.444h24.593c.591 0 1.07.332 1.07.741 0 .41-.479.74-1.07.74H362.89c-.591 0-1.069-.33-1.069-.74 0-.409.478-.74 1.069-.74ZM362.677 43.111h19.686c.472 0 .856.332.856.74 0 .41-.384.742-.856.742h-19.686c-.473 0-.856-.332-.856-.741 0-.41.383-.74.856-.74Z"/><path fill="#59B8D9" d="M381.83 16h12.343c.297 0 .537.332.537.74 0 .41-.24.742-.537.742H381.83c-.297 0-.537-.332-.537-.741 0-.41.24-.741.537-.741Z"/><path fill="#fff" d="M362.561 49.778h17.037a.741.741 0 0 1 0 1.481h-17.037a.74.74 0 0 1 0-1.481Z"/><path fill="#8F9190" d="M362.778 56.444h22.003c.529 0 .957.332.957.741 0 .41-.428.74-.957.74h-22.003c-.529 0-.957-.33-.957-.74 0-.409.428-.74.957-.74ZM362.561 63.111h17.037a.741.741 0 0 1 0 1.482h-17.037a.741.741 0 0 1 0-1.482ZM362.967 69.778h26.365c.632 0 1.146.332 1.146.74 0 .41-.512.741-1.146.741h-26.365c-.632 0-1.146-.332-1.146-.74 0-.41.512-.741 1.146-.741ZM458.116 25.481h6.64c.216 0 .391.199.391.445s-.175.444-.391.444h-6.64c-.217 0-.392-.198-.392-.444s.175-.445.392-.445ZM495.004 25.481h4.122c.133 0 .243.199.243.445s-.108.444-.243.444h-4.122c-.133 0-.243-.198-.243-.444s.109-.445.243-.445ZM517.547 25.481h4.518c.147 0 .265.199.265.445s-.118.444-.265.444h-4.518c-.147 0-.266-.198-.266-.444s.119-.445.266-.445ZM545.843 25.481h4.518c.147 0 .266.199.266.445s-.119.444-.266.444h-4.518c-.147 0-.265-.198-.265-.444s.118-.445.265-.445ZM593.576 25.481h7.556a.443.443 0 1 1 0 .89h-7.556a.443.443 0 1 1 0-.89Z"/><path fill="#101010" d="M413.172 25.481h3.193c.103 0 .188.199.188.445s-.085.444-.188.444h-3.193c-.104 0-.188-.198-.188-.444s.084-.445.188-.445Z"/><path fill="#EDF1F2" d="M601.59 35.26H401.886a.889.889 0 0 0-.889.888v4.148c0 .491.398.89.889.89H601.59c.49 0 .888-.399.888-.89v-4.148a.889.889 0 0 0-.888-.889Z"/><path fill="#197791" d="M413.725 37.481h40.74a.741.741 0 0 1 0 1.482h-40.74a.741.741 0 0 1 0-1.482Z"/><path fill="url(#c)" d="M411.071 37.481a.741.741 0 1 1 0 1.483.741.741 0 0 1 0-1.483Z"/><path fill="#8F9190" d="M458.182 37.63h32a.593.593 0 0 1 0 1.185h-32a.593.593 0 0 1 0-1.185ZM495.354 37.63h3.717a.593.593 0 0 1 0 1.185h-3.717a.593.593 0 0 1 0-1.185ZM517.872 37.63h3.718a.592.592 0 0 1 0 1.185h-3.718a.592.592 0 0 1 0-1.185ZM546.169 37.63h3.717a.593.593 0 0 1 0 1.185h-3.717a.592.592 0 1 1 0-1.185ZM588.997 37.63h11.987a.592.592 0 0 1 0 1.185h-11.987a.593.593 0 0 1 0-1.185Z"/><path fill="#7F7F80" d="M404.404 37.778h-.888v.889h.888v-.89ZM404.404 25.481h-.888v.89h.888v-.89Z"/><path fill="#197791" d="M408.553 37.926h-1.63v.593h1.63v-.593Z"/><path fill="#F35912" d="M413.725 43.556h40.74a.741.741 0 0 1 0 1.481h-40.74a.741.741 0 0 1 0-1.481ZM411.071 43.556a.741.741 0 1 1 0 1.482.741.741 0 0 1 0-1.482Z"/><path fill="#8F9190" d="M458.182 43.704h22.667a.592.592 0 0 1 0 1.185h-22.667a.593.593 0 0 1 0-1.185ZM495.354 43.704h13.198a.592.592 0 1 1 0 1.185h-13.198a.593.593 0 0 1 0-1.185ZM517.872 43.704h3.718a.592.592 0 0 1 0 1.185h-3.718a.592.592 0 0 1 0-1.185ZM546.169 43.704h8.458a.592.592 0 0 1 0 1.185h-8.458a.592.592 0 1 1 0-1.185ZM588.997 43.704h11.987a.592.592 0 0 1 0 1.185h-11.987a.593.593 0 0 1 0-1.185Z"/><path fill="#7F7F80" d="M404.404 43.852h-.888v.889h.888v-.89Z"/><path fill="#F35912" d="M408.553 44h-1.63v.593h1.63V44Z"/><path fill="#EDF1F2" d="M601.59 47.407H401.886a.889.889 0 0 0-.889.89v4.147c0 .491.398.89.889.89H601.59c.49 0 .888-.399.888-.89v-4.148a.889.889 0 0 0-.888-.889Z"/><path fill="#7F7F80" d="M413.725 49.63h40.74a.741.741 0 0 1 0 1.481h-40.74a.741.741 0 0 1 0-1.481ZM411.071 49.63a.741.741 0 1 1 0 1.482.741.741 0 0 1 0-1.482Z"/><path fill="#8F9190" d="M458.182 49.778h27.111a.592.592 0 1 1 0 1.185h-27.111a.593.593 0 0 1 0-1.185ZM495.354 49.778h3.717a.593.593 0 0 1 0 1.185h-3.717a.593.593 0 0 1 0-1.185ZM517.872 49.778h3.718a.592.592 0 0 1 0 1.185h-3.718a.592.592 0 0 1 0-1.185ZM546.169 49.778h3.717a.593.593 0 0 1 0 1.185h-3.717a.592.592 0 1 1 0-1.185ZM588.997 49.778h11.987a.592.592 0 0 1 0 1.185h-11.987a.593.593 0 0 1 0-1.185Z"/><path fill="#7F7F80" d="M404.404 49.926h-.888v.889h.888v-.89ZM408.553 50.074h-1.63v.593h1.63v-.593Z"/><path fill="#197791" d="M413.725 55.704h29.198a.741.741 0 0 1 0 1.481h-29.198a.741.741 0 0 1 0-1.481Z"/><path fill="#38AD69" d="M411.071 55.704a.741.741 0 1 1 0 1.482.741.741 0 0 1 0-1.482Z"/><path fill="#8F9190" d="M458.182 55.852h32a.593.593 0 0 1 0 1.185h-32a.593.593 0 0 1 0-1.185ZM495.354 55.852h9.347a.592.592 0 0 1 0 1.185h-9.347a.593.593 0 0 1 0-1.185ZM517.872 55.852h3.718a.592.592 0 0 1 0 1.185h-3.718a.592.592 0 0 1 0-1.185ZM546.169 55.852h10.087a.592.592 0 1 1 0 1.185h-10.087a.592.592 0 1 1 0-1.185ZM583.664 55.852h17.32a.592.592 0 0 1 0 1.185h-17.32a.592.592 0 1 1 0-1.185Z"/><path fill="#7F7F80" d="M404.404 56h-.888v.889h.888V56Z"/><path fill="#197791" d="M408.553 56.148h-1.63v.593h1.63v-.593Z"/><path fill="#EDF1F2" d="M601.59 66.519H401.886a.889.889 0 0 0-.889.888v4.149c0 .49.398.889.889.889H601.59c.49 0 .888-.398.888-.89v-4.148a.889.889 0 0 0-.888-.888Z"/><path fill="#197791" d="M413.725 68.74h40.74a.741.741 0 0 1 0 1.482h-40.74a.741.741 0 0 1 0-1.481Z"/><path fill="url(#d)" d="M411.071 68.74a.741.741 0 1 1 0 1.483.741.741 0 0 1 0-1.482Z"/><path fill="#8F9190" d="M458.182 68.889h32a.593.593 0 0 1 0 1.185h-32a.593.593 0 0 1 0-1.185ZM495.354 68.889h3.717a.593.593 0 0 1 0 1.185h-3.717a.593.593 0 0 1 0-1.185ZM517.872 68.889h5.643a.592.592 0 1 1 0 1.185h-5.643a.592.592 0 0 1 0-1.185ZM546.169 68.889h3.717a.593.593 0 0 1 0 1.185h-3.717a.592.592 0 1 1 0-1.185ZM588.997 68.889h11.987a.592.592 0 0 1 0 1.185h-11.987a.593.593 0 0 1 0-1.185Z"/><path fill="#7F7F80" d="M404.404 69.037h-.888v.889h.888v-.889Z"/><path fill="#197791" d="M408.553 69.185h-1.63v.593h1.63v-.593ZM413.725 74.815h40.74a.741.741 0 0 1 0 1.481h-40.74a.741.741 0 0 1 0-1.481ZM411.071 74.815a.741.741 0 1 1 0 1.482.741.741 0 0 1 0-1.482Z"/><path fill="#8F9190" d="M458.182 74.963h22.667a.592.592 0 0 1 0 1.185h-22.667a.593.593 0 0 1 0-1.185ZM495.354 74.963h13.198a.592.592 0 1 1 0 1.185h-13.198a.593.593 0 0 1 0-1.185ZM517.872 74.963h3.718a.592.592 0 0 1 0 1.185h-3.718a.592.592 0 0 1 0-1.185ZM546.169 74.963h9.05a.592.592 0 1 1 0 1.185h-9.05a.592.592 0 1 1 0-1.185ZM583.367 74.963h17.617a.592.592 0 0 1 0 1.185h-17.617a.592.592 0 0 1 0-1.185Z"/><path fill="#7F7F80" d="M404.404 75.111h-.888V76h.888v-.889Z"/><path fill="#197791" d="M408.553 75.26h-1.63v.592h1.63v-.593Z"/><path fill="#EDF1F2" d="M601.59 78.667H401.886a.889.889 0 0 0-.889.888v4.149c0 .49.398.889.889.889H601.59c.49 0 .888-.398.888-.89v-4.148a.889.889 0 0 0-.888-.888Z"/><path fill="#7F7F80" d="M413.725 80.889h40.74a.741.741 0 0 1 0 1.481h-40.74a.741.741 0 0 1 0-1.481ZM411.071 80.889a.741.741 0 1 1 0 1.482.741.741 0 0 1 0-1.482Z"/><path fill="#8F9190" d="M458.182 81.037h27.111a.592.592 0 1 1 0 1.185h-27.111a.593.593 0 0 1 0-1.185ZM495.354 81.037h3.717a.593.593 0 0 1 0 1.185h-3.717a.593.593 0 0 1 0-1.185ZM517.872 81.037h6.532a.592.592 0 1 1 0 1.185h-6.532a.592.592 0 0 1 0-1.185ZM546.169 81.037h6.532a.592.592 0 0 1 0 1.185h-6.532a.592.592 0 1 1 0-1.185ZM591.812 81.037h9.172a.592.592 0 0 1 0 1.185h-9.172a.592.592 0 1 1 0-1.185Z"/><path fill="#7F7F80" d="M404.404 81.185h-.888v.89h.888v-.89ZM408.553 81.333h-1.63v.593h1.63v-.593Z"/><path fill="#197791" d="M413.725 86.963h29.198a.741.741 0 0 1 0 1.482h-29.198a.741.741 0 0 1 0-1.482Z"/><path fill="#38AD69" d="M411.071 86.963a.741.741 0 1 1 0 1.482.741.741 0 0 1 0-1.482Z"/><path fill="#8F9190" d="M458.182 87.111h32a.593.593 0 0 1 0 1.185h-32a.593.593 0 0 1 0-1.185ZM495.354 87.111h9.347a.592.592 0 0 1 0 1.185h-9.347a.593.593 0 0 1 0-1.185ZM517.872 87.111h3.718a.592.592 0 0 1 0 1.185h-3.718a.592.592 0 0 1 0-1.185ZM546.169 87.111h10.384a.592.592 0 0 1 0 1.185h-10.384a.592.592 0 1 1 0-1.185ZM584.108 87.111h16.876a.592.592 0 0 1 0 1.185h-16.876a.592.592 0 0 1 0-1.185Z"/><path fill="#7F7F80" d="M404.404 87.26h-.888v.888h.888v-.889Z"/><path fill="#197791" d="M408.553 87.407h-1.63V88h1.63v-.593Z"/><path fill="#EDF1F2" d="M601.59 90.222H401.886a.889.889 0 0 0-.889.89v4.147c0 .491.398.89.889.89H601.59c.49 0 .888-.399.888-.89v-4.148a.889.889 0 0 0-.888-.889Z"/><path fill="#197791" d="M413.725 92.445h40.74a.741.741 0 0 1 0 1.48h-40.74a.741.741 0 0 1 0-1.48Z"/><path fill="url(#e)" d="M411.071 92.445a.741.741 0 1 1 0 1.482.741.741 0 0 1 0-1.483Z"/><path fill="#8F9190" d="M458.182 92.593h32a.593.593 0 0 1 0 1.185h-32a.593.593 0 0 1 0-1.186ZM495.354 92.593h3.717a.593.593 0 0 1 0 1.185h-3.717a.593.593 0 0 1 0-1.186ZM517.872 92.593h7.273a.593.593 0 0 1 0 1.185h-7.273a.592.592 0 0 1 0-1.186ZM546.169 92.593h11.272a.592.592 0 1 1 0 1.185h-11.272a.592.592 0 1 1 0-1.186ZM588.997 92.593h11.987a.592.592 0 0 1 0 1.185h-11.987a.593.593 0 0 1 0-1.186Z"/><path fill="#7F7F80" d="M404.404 92.74h-.888v.89h.888v-.89Z"/><path fill="#197791" d="M408.553 92.889h-1.63v.593h1.63v-.593Z"/><path fill="#F35912" d="M413.725 98.519h40.74a.741.741 0 0 1 0 1.481h-40.74a.741.741 0 0 1 0-1.481ZM411.071 98.519a.741.741 0 1 1 0 1.482.741.741 0 0 1 0-1.482Z"/><path fill="#8F9190" d="M458.182 98.667h22.667a.592.592 0 0 1 0 1.185h-22.667a.593.593 0 0 1 0-1.185ZM495.354 98.667h13.198a.592.592 0 1 1 0 1.185h-13.198a.593.593 0 0 1 0-1.185ZM517.872 98.667h5.051a.592.592 0 0 1 0 1.185h-5.051a.592.592 0 0 1 0-1.185ZM546.169 98.667h9.05a.592.592 0 1 1 0 1.185h-9.05a.592.592 0 1 1 0-1.185ZM583.812 98.667h17.172a.592.592 0 0 1 0 1.185h-17.172a.592.592 0 1 1 0-1.185Z"/><path fill="#7F7F80" d="M404.404 98.815h-.888v.889h.888v-.89Z"/><path fill="#F35912" d="M408.553 98.963h-1.63v.593h1.63v-.593Z"/><path fill="#EDF1F2" d="M601.59 102.37H401.886a.889.889 0 0 0-.889.889v4.148c0 .491.398.889.889.889H601.59c.49 0 .888-.398.888-.889v-4.148a.889.889 0 0 0-.888-.889Z"/><path fill="#7F7F80" d="M413.725 104.593h40.74a.74.74 0 1 1 0 1.481h-40.74a.741.741 0 0 1 0-1.481ZM411.071 104.593a.74.74 0 1 1 .001 1.48.74.74 0 0 1-.001-1.48Z"/><path fill="#8F9190" d="M458.182 104.741h27.111a.592.592 0 1 1 0 1.185h-27.111a.593.593 0 0 1 0-1.185ZM495.354 104.741h3.717a.593.593 0 1 1 0 1.185h-3.717a.593.593 0 0 1 0-1.185ZM517.872 104.741h6.384a.592.592 0 1 1 0 1.185h-6.384a.592.592 0 0 1 0-1.185ZM546.169 104.741h5.05a.592.592 0 1 1 0 1.185h-5.05a.592.592 0 1 1 0-1.185ZM581.145 104.741h19.839a.592.592 0 1 1 0 1.185h-19.839a.592.592 0 0 1 0-1.185Z"/><path fill="#7F7F80" d="M404.404 104.889h-.888v.889h.888v-.889ZM408.553 105.037h-1.63v.593h1.63v-.593Z"/><path fill="#197791" d="M413.725 110.667h29.198a.74.74 0 1 1 0 1.481h-29.198a.741.741 0 0 1 0-1.481Z"/><path fill="#FFCE33" d="M411.071 110.667a.74.74 0 1 1 .001 1.48.74.74 0 0 1-.001-1.48Z"/><path fill="#8F9190" d="M458.182 110.815h32a.593.593 0 1 1 0 1.185h-32a.593.593 0 0 1 0-1.185ZM495.354 110.815h9.347a.592.592 0 1 1 0 1.185h-9.347a.593.593 0 0 1 0-1.185ZM517.872 110.815h3.718a.592.592 0 1 1 0 1.185h-3.718a.592.592 0 0 1 0-1.185ZM546.169 110.815h11.421a.592.592 0 1 1 0 1.185h-11.421a.592.592 0 1 1 0-1.185ZM580.997 110.815h19.987a.592.592 0 1 1 0 1.185h-19.987a.593.593 0 0 1 0-1.185Z"/><path fill="#7F7F80" d="M404.404 110.963h-.888v.889h.888v-.889Z"/><path fill="#197791" d="M408.553 111.111h-1.63v.593h1.63v-.593Z"/><path fill="#EDF1F2" d="M601.59 121.481H401.886a.889.889 0 0 0-.889.889v4.148c0 .491.398.889.889.889H601.59c.49 0 .888-.398.888-.889v-4.148a.889.889 0 0 0-.888-.889Z"/><path fill="#197791" d="M413.725 123.704h40.74a.741.741 0 0 1 0 1.481h-40.74a.741.741 0 0 1 0-1.481Z"/><path fill="url(#f)" d="M411.071 123.704a.741.741 0 1 1 0 1.482.741.741 0 0 1 0-1.482Z"/><path fill="#8F9190" d="M458.182 123.852h32a.593.593 0 1 1 0 1.185h-32a.593.593 0 0 1 0-1.185ZM495.354 123.852h3.717a.593.593 0 1 1 0 1.185h-3.717a.593.593 0 0 1 0-1.185ZM517.872 123.852h3.421a.592.592 0 1 1 0 1.185h-3.421a.592.592 0 0 1 0-1.185ZM546.169 123.852h3.717a.593.593 0 1 1 0 1.185h-3.717a.592.592 0 1 1 0-1.185ZM586.182 123.852h14.802a.592.592 0 1 1 0 1.185h-14.802a.593.593 0 0 1 0-1.185Z"/><path fill="#7F7F80" d="M404.404 124h-.888v.889h.888V124Z"/><path fill="#197791" d="M408.553 124.148h-1.63v.593h1.63v-.593Z"/><path fill="#7F7F80" d="M413.725 129.778h40.74a.741.741 0 0 1 0 1.481h-40.74a.741.741 0 0 1 0-1.481ZM411.071 129.778a.741.741 0 1 1 0 1.483.741.741 0 0 1 0-1.483Z"/><path fill="#8F9190" d="M458.182 129.926h22.667a.592.592 0 1 1 0 1.185h-22.667a.593.593 0 0 1 0-1.185ZM495.354 129.926h13.198a.592.592 0 1 1 0 1.185h-13.198a.593.593 0 0 1 0-1.185ZM517.872 129.926h5.051a.592.592 0 1 1 0 1.185h-5.051a.592.592 0 0 1 0-1.185ZM546.169 129.926h9.05a.592.592 0 1 1 0 1.185h-9.05a.592.592 0 1 1 0-1.185ZM583.812 129.926h17.172a.592.592 0 1 1 0 1.185h-17.172a.592.592 0 1 1 0-1.185Z"/><path fill="#7F7F80" d="M404.404 130.074h-.888v.889h.888v-.889ZM408.553 130.222h-1.63v.593h1.63v-.593Z"/><path fill="#EDF1F2" d="M601.59 133.63H401.886a.889.889 0 0 0-.889.889v4.148c0 .491.398.889.889.889H601.59c.49 0 .888-.398.888-.889v-4.148a.889.889 0 0 0-.888-.889Z"/><path fill="#7F7F80" d="M413.725 135.852h40.74a.741.741 0 0 1 0 1.481h-40.74a.741.741 0 0 1 0-1.481ZM411.071 135.852a.741.741 0 1 1 0 1.483.741.741 0 0 1 0-1.483Z"/><path fill="#8F9190" d="M458.182 136h27.111a.592.592 0 1 1 0 1.185h-27.111a.593.593 0 1 1 0-1.185ZM495.354 136h3.717a.593.593 0 0 1 0 1.185h-3.717a.593.593 0 1 1 0-1.185ZM517.872 136h2.829a.592.592 0 0 1 0 1.185h-2.829a.592.592 0 1 1 0-1.185ZM546.169 136h6.532a.592.592 0 0 1 0 1.185h-6.532a.592.592 0 1 1 0-1.185ZM584.552 136h16.432a.592.592 0 0 1 0 1.185h-16.432a.592.592 0 1 1 0-1.185Z"/><path fill="#7F7F80" d="M404.404 136.148h-.888v.889h.888v-.889ZM408.553 136.296h-1.63v.593h1.63v-.593Z"/><path fill="#197791" d="M413.725 141.926h29.198a.741.741 0 0 1 0 1.481h-29.198a.74.74 0 1 1 0-1.481Z"/><path fill="#FFCE33" d="M411.071 141.926a.741.741 0 1 1 0 1.483.741.741 0 0 1 0-1.483Z"/><path fill="#8F9190" d="M458.182 142.074h32a.593.593 0 0 1 0 1.185h-32a.593.593 0 1 1 0-1.185ZM495.354 142.074h9.347a.592.592 0 0 1 0 1.185h-9.347a.593.593 0 1 1 0-1.185ZM517.872 142.074h3.718a.592.592 0 0 1 0 1.185h-3.718a.592.592 0 1 1 0-1.185ZM546.169 142.074h11.421a.592.592 0 0 1 0 1.185h-11.421a.592.592 0 1 1 0-1.185ZM583.516 142.074h17.468a.592.592 0 0 1 0 1.185h-17.468a.592.592 0 1 1 0-1.185Z"/><path fill="#7F7F80" d="M404.404 142.222h-.888v.889h.888v-.889Z"/><path fill="#197791" d="M408.553 142.37h-1.63v.593h1.63v-.593Z"/><path fill="#EDF1F2" d="M601.59 145.185H401.886a.889.889 0 0 0-.889.889v4.148c0 .491.398.889.889.889H601.59c.49 0 .888-.398.888-.889v-4.148a.889.889 0 0 0-.888-.889Z"/><path fill="#197791" d="M413.725 147.407h40.74a.741.741 0 0 1 0 1.482h-40.74a.741.741 0 0 1 0-1.482Z"/><path fill="url(#g)" d="M411.071 147.407a.741.741 0 1 1 0 1.483.741.741 0 0 1 0-1.483Z"/><path fill="#8F9190" d="M458.182 147.556h32a.593.593 0 1 1 0 1.185h-32a.593.593 0 0 1 0-1.185ZM495.354 147.556h3.717a.593.593 0 1 1 0 1.185h-3.717a.593.593 0 0 1 0-1.185ZM517.872 147.556h5.792a.592.592 0 1 1 0 1.185h-5.792a.592.592 0 0 1 0-1.185ZM546.169 147.556h6.532a.592.592 0 1 1 0 1.185h-6.532a.592.592 0 1 1 0-1.185ZM588.997 147.556h11.987a.592.592 0 1 1 0 1.185h-11.987a.593.593 0 0 1 0-1.185Z"/><path fill="#7F7F80" d="M404.404 147.704h-.888v.889h.888v-.889Z"/><path fill="#197791" d="M408.553 147.852h-1.63v.592h1.63v-.592Z"/><path fill="#F35912" d="M413.725 153.481h40.74a.741.741 0 0 1 0 1.482h-40.74a.741.741 0 0 1 0-1.482ZM411.071 153.481a.741.741 0 1 1 0 1.483.741.741 0 0 1 0-1.483Z"/><path fill="#8F9190" d="M458.182 153.63h22.667a.592.592 0 1 1 0 1.185h-22.667a.593.593 0 0 1 0-1.185ZM495.354 153.63h13.198a.592.592 0 1 1 0 1.185h-13.198a.593.593 0 0 1 0-1.185ZM517.872 153.63h3.718a.592.592 0 1 1 0 1.185h-3.718a.592.592 0 0 1 0-1.185ZM546.169 153.63h9.05a.592.592 0 1 1 0 1.185h-9.05a.592.592 0 1 1 0-1.185ZM584.552 153.63h16.432a.592.592 0 1 1 0 1.185h-16.432a.592.592 0 0 1 0-1.185Z"/><path fill="#7F7F80" d="M404.404 153.778h-.888v.889h.888v-.889Z"/><path fill="#F35912" d="M408.553 153.926h-1.63v.592h1.63v-.592Z"/><path fill="#EDF1F2" d="M601.59 157.333H401.886a.889.889 0 0 0-.889.889v4.148c0 .491.398.889.889.889H601.59c.49 0 .888-.398.888-.889v-4.148a.889.889 0 0 0-.888-.889Z"/><path fill="#7F7F80" d="M413.725 159.556h40.74a.74.74 0 1 1 0 1.481h-40.74a.741.741 0 0 1 0-1.481ZM411.071 159.556a.74.74 0 1 1 .001 1.48.74.74 0 0 1-.001-1.48Z"/><path fill="#8F9190" d="M458.182 159.704h27.111a.592.592 0 1 1 0 1.185h-27.111a.593.593 0 0 1 0-1.185ZM495.354 159.704h3.717a.593.593 0 1 1 0 1.185h-3.717a.593.593 0 0 1 0-1.185ZM517.872 159.704h5.347a.592.592 0 1 1 0 1.185h-5.347a.592.592 0 0 1 0-1.185ZM546.169 159.704h6.976a.592.592 0 1 1 0 1.185h-6.976a.592.592 0 1 1 0-1.185ZM588.997 159.704h11.987a.592.592 0 1 1 0 1.185h-11.987a.593.593 0 0 1 0-1.185Z"/><path fill="#7F7F80" d="M404.404 159.852h-.888v.889h.888v-.889ZM408.553 160h-1.63v.593h1.63V160ZM413.725 165.63h29.198a.74.74 0 1 1 0 1.481h-29.198a.741.741 0 0 1 0-1.481ZM411.071 165.63a.74.74 0 1 1 .001 1.48.74.74 0 0 1-.001-1.48Z"/><path fill="#8F9190" d="M458.182 165.778h32a.593.593 0 1 1 0 1.185h-32a.593.593 0 0 1 0-1.185ZM495.354 165.778h9.347a.592.592 0 1 1 0 1.185h-9.347a.593.593 0 0 1 0-1.185ZM517.872 165.778h6.384a.592.592 0 1 1 0 1.185h-6.384a.592.592 0 0 1 0-1.185ZM546.169 165.778h5.939a.592.592 0 1 1 0 1.185h-5.939a.592.592 0 1 1 0-1.185ZM582.627 165.778h18.357a.592.592 0 1 1 0 1.185h-18.357a.592.592 0 1 1 0-1.185Z"/><path fill="#7F7F80" d="M404.404 165.926h-.888v.889h.888v-.889ZM408.553 166.074h-1.63v.593h1.63v-.593Z"/></g><path stroke="#000" stroke-width="4" d="M602.407 10a5 5 0 0 1 5 5v159H318.963V15a5 5 0 0 1 5-5h278.444Z"/><defs><linearGradient id="a" x1="53.852" x2="58.889" y1="168" y2="168" gradientUnits="userSpaceOnUse"><stop stop-color="#23A2CD"/><stop offset="1" stop-color="#D75B83"/></linearGradient><linearGradient id="c" x1="410.33" x2="411.812" y1="38.222" y2="38.222" gradientUnits="userSpaceOnUse"><stop stop-color="#23A2CD"/><stop offset="1" stop-color="#D75B83"/></linearGradient><linearGradient id="d" x1="410.33" x2="411.812" y1="69.481" y2="69.481" gradientUnits="userSpaceOnUse"><stop stop-color="#23A2CD"/><stop offset="1" stop-color="#D75B83"/></linearGradient><linearGradient id="e" x1="410.33" x2="411.812" y1="93.185" y2="93.185" gradientUnits="userSpaceOnUse"><stop stop-color="#23A2CD"/><stop offset="1" stop-color="#D75B83"/></linearGradient><linearGradient id="f" x1="410.33" x2="411.812" y1="124.444" y2="124.444" gradientUnits="userSpaceOnUse"><stop stop-color="#23A2CD"/><stop offset="1" stop-color="#D75B83"/></linearGradient><linearGradient id="g" x1="410.33" x2="411.812" y1="148.148" y2="148.148" gradientUnits="userSpaceOnUse"><stop stop-color="#23A2CD"/><stop offset="1" stop-color="#D75B83"/></linearGradient><clipPath id="b"><path fill="#fff" d="M320.963 15a3 3 0 0 1 3-3h278.444a3 3 0 0 1 3 3v157H320.963V15Z"/></clipPath></defs></svg>