<svg xmlns="http://www.w3.org/2000/svg" width="617" height="172" fill="none"><path fill="#fff" d="M293.444 10a5 5 0 0 1 5 5v159H10V15a5 5 0 0 1 5-5h278.444Z"/><path stroke="#000" stroke-width="4" d="M293.444 10a5 5 0 0 1 5 5v159H10V15a5 5 0 0 1 5-5h278.444Z"/><path fill="#212122" stroke="#202021" d="M242.222 32.593H50.519v123.555h191.703V32.593Z"/><path fill="#323234" stroke="#202021" stroke-miterlimit="10" d="M242.222 12H50.519v20.593h191.703V12Z"/><path fill="#323234" stroke="#202021" stroke-miterlimit="10" d="M296.445 12h-54.223v151.956h54.223V12Z"/><path fill="#323234" stroke="#202021" stroke-miterlimit="10" d="M296.444 12h-8.296v151.956h8.296V12ZM296.444 164H50.519v8h245.925v-8ZM242.222 156.148H50.519V164h191.703v-7.852Z"/><path fill="#4B5058" d="M219.022 35.704H74.162c-.62 0-1.125.504-1.125 1.126v47.674c0 .621.504 1.126 1.126 1.126h144.859c.622 0 1.126-.504 1.126-1.126V36.83c0-.622-.504-1.126-1.126-1.126Z"/><path fill="#323234" d="M220.148 72H73.037v13.63h147.111V72ZM219.022 93.778H74.162c-.62 0-1.125.504-1.125 1.126v7.674c0 .622.504 1.126 1.126 1.126h144.859c.622 0 1.126-.504 1.126-1.126v-7.674c0-.622-.504-1.126-1.126-1.126Z"/><path fill="#23A2CD" d="M219.022 103.926H74.163a1.35 1.35 0 0 1-1.348-1.348v-7.674a1.35 1.35 0 0 1 1.348-1.348h144.859c.744 0 1.348.604 1.348 1.348v7.674a1.35 1.35 0 0 1-1.348 1.348ZM74.163 94a.905.905 0 0 0-.904.904v7.674c0 .498.406.903.904.903h144.859a.905.905 0 0 0 .904-.903v-7.674a.905.905 0 0 0-.904-.904H74.163Z"/><path fill="#323234" d="M219.022 112.593H74.162c-.62 0-1.125.504-1.125 1.126v7.674c0 .621.504 1.126 1.126 1.126h144.859c.622 0 1.126-.505 1.126-1.126v-7.674c0-.622-.504-1.126-1.126-1.126ZM219.022 131.407H74.162c-.62 0-1.125.505-1.125 1.126v21.304c0 .622.504 1.126 1.126 1.126h144.859c.622 0 1.126-.504 1.126-1.126v-21.304c0-.621-.504-1.126-1.126-1.126Z"/><path fill="#FFCE33" d="M292 164.889h-14.963a1.48 1.48 0 0 0-1.481 1.481v3.26a1.48 1.48 0 0 0 1.481 1.481H292a1.48 1.48 0 0 0 1.481-1.481v-3.26a1.48 1.48 0 0 0-1.481-1.481Z"/><path fill="#23A2CD" d="M177.333 156.889h-15.852A1.48 1.48 0 0 0 160 158.37v3.26a1.48 1.48 0 0 0 1.481 1.481h15.852c.819 0 1.482-.663 1.482-1.481v-3.26c0-.818-.663-1.481-1.482-1.481Z"/><path fill="#197791" d="M155.259 158.963h-19.111a.741.741 0 0 0-.741.741V160c0 .409.332.741.741.741h19.111A.741.741 0 0 0 156 160v-.296a.741.741 0 0 0-.741-.741ZM128.889 158.963h-11.704a.741.741 0 0 0-.741.741V160c0 .409.332.741.741.741h11.704a.741.741 0 0 0 .741-.741v-.296a.741.741 0 0 0-.741-.741ZM255.111 167.407h10.37a.741.741 0 0 1 0 1.482h-10.37a.741.741 0 0 1 0-1.482Z"/><path fill="#868686" d="M268.741 167.407h.74a.741.741 0 0 1 0 1.482h-.74a.741.741 0 0 1 0-1.482Z"/><path fill="#A0744A" d="M224 85.63a2.37 2.37 0 1 0 0-4.74 2.37 2.37 0 0 0 0 4.74Z"/><path fill="#982A04" d="M68.74 103.704a2.371 2.371 0 1 0 0-4.742 2.371 2.371 0 0 0 0 4.742Z"/><path fill="#535355" d="M67.26 27.407a4.148 4.148 0 1 0 0-8.296 4.148 4.148 0 0 0 0 8.296Z"/><path fill="#982A04" d="M68.74 122.519a2.371 2.371 0 1 0 0-4.742 2.371 2.371 0 0 0 0 4.742Z"/><path fill="#A0744A" d="M60.148 27.407a4.148 4.148 0 1 0 0-8.296 4.148 4.148 0 0 0 0 8.296Z"/><path fill="#868686" d="M52.74 14.963h34.964a.444.444 0 1 1 0 .889H52.74a.444.444 0 1 1 0-.889ZM244.444 23.111H252a.443.443 0 1 1 0 .889h-7.556a.444.444 0 0 1 0-.889ZM244.444 27.556h5.186a.443.443 0 1 1 0 .888h-5.186a.444.444 0 0 1 0-.888ZM244.444 40.444h5.186a.443.443 0 1 1 0 .89h-5.186a.444.444 0 0 1 0-.89ZM244.444 53.333h4.593a.443.443 0 1 1 0 .89h-4.593a.444.444 0 0 1 0-.89ZM244.444 66.222h8.297a.443.443 0 1 1 0 .89h-8.297a.444.444 0 0 1 0-.89ZM244.444 79.556h2.963a.444.444 0 1 1 0 .888h-2.963a.444.444 0 0 1 0-.888ZM244.444 85.481h14.667a.444.444 0 1 1 0 .89h-14.667a.444.444 0 0 1 0-.89ZM244.444 93.63h12.297a.443.443 0 1 1 0 .889h-12.297a.444.444 0 0 1 0-.89Z"/><path fill="#D1D1D1" d="M244.444 98.074h4.593a.443.443 0 1 1 0 .889h-4.593a.444.444 0 0 1 0-.889ZM244.444 102.222h10.223a.444.444 0 1 1 0 .889h-10.223a.444.444 0 1 1 0-.889ZM244.444 105.778h10.223a.444.444 0 1 1 0 .889h-10.223a.444.444 0 0 1 0-.889ZM244.444 109.333h10.223a.444.444 0 1 1 0 .889h-10.223a.444.444 0 1 1 0-.889ZM244.444 112.889h10.223a.444.444 0 1 1 0 .889h-10.223a.444.444 0 0 1 0-.889Z"/><path fill="#868686" d="M277.185 102.222h8.148a.445.445 0 1 1 0 .889h-8.148a.444.444 0 1 1 0-.889ZM277.185 105.778h8.148a.444.444 0 1 1 0 .889h-8.148a.444.444 0 1 1 0-.889ZM277.185 109.333h8.148a.445.445 0 1 1 0 .889h-8.148a.444.444 0 1 1 0-.889ZM277.185 112.889h8.148a.444.444 0 1 1 0 .889h-8.148a.444.444 0 1 1 0-.889ZM244.444 122.963h12.297a.444.444 0 1 1 0 .889h-12.297a.444.444 0 0 1 0-.889Z"/><path fill="#262627" d="M284.296 30.222h-38.815c-.818 0-1.481.663-1.481 1.482v2.666c0 .819.663 1.482 1.481 1.482h38.815c.818 0 1.482-.663 1.482-1.482v-2.666c0-.819-.664-1.482-1.482-1.482ZM284.296 43.26h-38.815c-.818 0-1.481.663-1.481 1.48v2.667c0 .819.663 1.482 1.481 1.482h38.815c.818 0 1.482-.663 1.482-1.482v-2.666c0-.819-.664-1.482-1.482-1.482ZM284.296 56.296h-38.815c-.818 0-1.481.664-1.481 1.482v2.666c0 .819.663 1.482 1.481 1.482h38.815c.818 0 1.482-.663 1.482-1.482v-2.666c0-.818-.664-1.482-1.482-1.482ZM284.296 69.333h-38.815c-.818 0-1.481.664-1.481 1.482v2.666c0 .819.663 1.482 1.481 1.482h38.815c.818 0 1.482-.663 1.482-1.481v-2.667c0-.818-.664-1.482-1.482-1.482ZM284.296 126.963h-38.815a1.48 1.48 0 0 0-1.481 1.481v16.889c0 .819.663 1.482 1.481 1.482h38.815c.818 0 1.482-.663 1.482-1.482v-16.889c0-.818-.664-1.481-1.482-1.481Z"/><path fill="#fff" d="M252.12 129.037h7.416c.148 0 .268.199.268.444 0 .246-.12.445-.268.445h-7.416c-.148 0-.268-.199-.268-.445 0-.245.12-.444.268-.444Z"/><path fill="#323234" d="M247.556 128h1.777a1.482 1.482 0 0 1 0 2.963h-1.777a1.483 1.483 0 0 1 0-2.963Z"/><path fill="#85B746" d="M248.296 138.742a2.518 2.518 0 1 0 .001-5.037 2.518 2.518 0 0 0-.001 5.037Z"/><path fill="#A0744A" d="M254.37 138.742a2.518 2.518 0 1 0 .001-5.037 2.518 2.518 0 0 0-.001 5.037Z"/><path fill="#982A04" d="M260.444 138.742a2.518 2.518 0 1 0 .001-5.037 2.518 2.518 0 0 0-.001 5.037Z"/><path fill="#23A2CD" d="M284.296 84.74h-1.185a.592.592 0 0 0-.592.593v1.186c0 .327.265.592.592.592h1.185a.592.592 0 0 0 .593-.593v-1.185a.593.593 0 0 0-.593-.592Z"/><path fill="#868686" d="M213.481 15.704h11.852a.444.444 0 1 1 0 .889h-11.852a.444.444 0 0 1 0-.89ZM244.889 14.815h8.592a.89.89 0 0 1 0 1.778h-8.592a.89.89 0 0 1 0-1.778Z"/><path fill="#23A2CD" d="M229.63 15.704h1.629a.444.444 0 1 1 0 .889h-1.629a.444.444 0 1 1 0-.89Z"/><path fill="#197791" d="M236.148 15.704h1.63a.443.443 0 1 1 0 .889h-1.63a.443.443 0 1 1 0-.89Z"/><path fill="#fff" d="M90.074 14.963h10.519a.443.443 0 1 1 0 .889H90.074a.444.444 0 1 1 0-.889ZM101.778 22.667H73.926a.74.74 0 0 0-.74.74v.297c0 .409.33.74.74.74h27.852a.741.741 0 0 0 .741-.74v-.297c0-.409-.332-.74-.741-.74Z"/><path fill="#868686" d="M73.926 18.963h35.852a.741.741 0 0 1 0 1.481H73.926a.74.74 0 0 1 0-1.481Z"/><path fill="#fff" d="M75.556 37.926h8.74a.741.741 0 0 1 0 1.481h-8.74a.741.741 0 0 1 0-1.481ZM75.556 95.852h10.222a.74.74 0 0 1 0 1.481H75.556a.741.741 0 0 1 0-1.481Z"/><path fill="#868686" d="M75.556 99.26h32.148a.74.74 0 0 1 0 1.481H75.556a.741.741 0 0 1 0-1.482Z"/><path fill="#fff" d="M75.556 114.815h10.222a.741.741 0 0 1 0 1.481H75.556a.741.741 0 0 1 0-1.481Z"/><path fill="#868686" d="M75.556 118.222H100a.741.741 0 0 1 0 1.482H75.556a.741.741 0 0 1 0-1.482Z"/><path fill="#fff" d="M75.556 133.778h12.592a.741.741 0 0 1 0 1.481H75.556a.741.741 0 0 1 0-1.481Z"/><path fill="#868686" d="M75.556 137.185h141.037a.741.741 0 0 1 0 1.482H75.556a.741.741 0 0 1 0-1.482ZM75.556 140.593h141.037a.74.74 0 0 1 0 1.481H75.556a.741.741 0 0 1 0-1.481ZM75.556 144h125.333a.741.741 0 0 1 0 1.481H75.556a.74.74 0 1 1 0-1.481ZM75.556 147.407h141.037a.741.741 0 0 1 0 1.482H75.556a.741.741 0 0 1 0-1.482ZM75.556 150.815H206.37a.741.741 0 0 1 0 1.481H75.556a.741.741 0 0 1 0-1.481ZM75.556 41.333h8.74a.741.741 0 0 1 0 1.482h-8.74a.741.741 0 0 1 0-1.482ZM76.148 72.889h11.407a.74.74 0 0 1 0 1.481H76.148a.741.741 0 0 1 0-1.481ZM84 78.074h11.407a.741.741 0 0 1 0 1.481H84a.74.74 0 0 1 0-1.48ZM84 81.037h3.556a.741.741 0 0 1 0 1.481H84a.74.74 0 0 1 0-1.481ZM75.556 47.111h29.481a.741.741 0 0 1 0 1.482H75.556a.741.741 0 0 1 0-1.482ZM75.556 52.889h136a.74.74 0 0 1 0 1.481h-136a.741.741 0 0 1 0-1.481ZM75.556 61.333h5.925a.741.741 0 0 1 0 1.482h-5.925a.741.741 0 0 1 0-1.482ZM75.556 67.111h16.888a.741.741 0 0 1 0 1.482H75.556a.741.741 0 0 1 0-1.482Z"/><path fill="#212122" d="M93.481 26.815H73.926a.889.889 0 0 0-.889.889v2.37c0 .491.398.889.889.889H93.48a.889.889 0 0 0 .89-.889v-2.37a.889.889 0 0 0-.89-.89Z"/><path fill="#453914" d="M104.889 26.815h-8.148a.889.889 0 0 0-.89.889v2.37c0 .491.399.889.89.889h8.148a.889.889 0 0 0 .889-.889v-2.37a.889.889 0 0 0-.889-.89Z"/><path fill="#063849" d="M122.37 26.815h-14.222a.889.889 0 0 0-.889.889v2.37c0 .491.398.889.889.889h14.222a.889.889 0 0 0 .889-.889v-2.37a.889.889 0 0 0-.889-.89Z"/><path fill="url(#a)" d="M55.852 170.519a2.519 2.519 0 1 0 0-5.038 2.519 2.519 0 0 0 0 5.038Z"/><path fill="#A0744A" d="M61.926 170.519a2.519 2.519 0 1 0 0-5.038 2.519 2.519 0 0 0 0 5.038Z"/><path fill="#982A04" d="M68 170.519a2.519 2.519 0 1 0 0-5.038 2.519 2.519 0 0 0 0 5.038Z"/><path fill="#191919" d="M50.519 12H12v160h38.519V12Z"/><path fill="#23A2CD" d="M50.519 85.926H12v5.63h38.519v-5.63Z"/><path fill="#982A04" d="M17.926 170.37a4.148 4.148 0 1 0 0-8.296 4.148 4.148 0 0 0 0 8.296Z"/><path fill="#262627" d="M47.26 162.222H36.295c-.818 0-1.481.664-1.481 1.482v4.74c0 .819.663 1.482 1.481 1.482H47.26c.819 0 1.482-.663 1.482-1.482v-4.74c0-.818-.663-1.482-1.482-1.482ZM40.593 13.482H14.519a.74.74 0 0 0-.741.74v4.148c0 .41.332.741.74.741h26.075a.74.74 0 0 0 .74-.74v-4.149a.74.74 0 0 0-.74-.74Z"/><path fill="#868686" d="M14.963 23.111h7.407a.444.444 0 1 1 0 .889h-7.407a.444.444 0 1 1 0-.889Z"/><path fill="#D1D1D1" d="M15.26 28.593h12.444a.741.741 0 0 1 0 1.481H15.259a.741.741 0 0 1 0-1.481Z"/><path fill="#868686" d="M14.963 69.333h7.407a.444.444 0 1 1 0 .89h-7.407a.444.444 0 1 1 0-.89Z"/><path fill="#D1D1D1" d="M18.815 74.074h12a.741.741 0 0 1 0 1.481h-12a.74.74 0 0 1 0-1.48ZM15.26 35.704h13.48a.741.741 0 0 1 0 1.481H15.26a.741.741 0 0 1 0-1.481ZM15.26 42.815h11.11a.741.741 0 0 1 0 1.481H15.26a.741.741 0 0 1 0-1.481ZM15.26 49.926h17.036a.741.741 0 0 1 0 1.481H15.26a.74.74 0 0 1 0-1.481ZM14.963 57.037H32a.741.741 0 0 1 0 1.482H14.963a.74.74 0 0 1 0-1.482ZM14.963 64.148H32a.741.741 0 0 1 0 1.482H14.963a.74.74 0 0 1 0-1.482Z"/><path fill="#23A2CD" d="M44.889 56.296h1.778a1.482 1.482 0 0 1 0 2.963h-1.778a1.482 1.482 0 0 1 0-2.963Z"/><path fill="#323234" d="M44.889 63.407h1.778a1.482 1.482 0 0 1 0 2.963h-1.778a1.482 1.482 0 0 1 0-2.963Z"/><path fill="#FFCE33" d="M15.704 73.333a1.482 1.482 0 1 1-.001 2.964 1.482 1.482 0 0 1 0-2.964Z"/><path fill="#D1D1D1" d="M18.815 81.037h23.852a.741.741 0 0 1 0 1.481H18.815a.74.74 0 0 1 0-1.481Z"/><path fill="#FFCE33" d="M15.704 80.296a1.482 1.482 0 1 1-.001 2.964 1.482 1.482 0 0 1 0-2.964Z"/><path fill="#fff" d="M18.815 88h9.926a.741.741 0 0 1 0 1.481h-9.926a.741.741 0 0 1 0-1.481ZM15.704 87.26a1.482 1.482 0 1 1-.001 2.963 1.482 1.482 0 0 1 0-2.964Z"/><path fill="#D1D1D1" d="M18.815 94.963H28a.741.741 0 0 1 0 1.481h-9.185a.74.74 0 0 1 0-1.481Z"/><path fill="#38AD69" d="M15.704 94.222a1.482 1.482 0 1 1-.001 2.964 1.482 1.482 0 0 1 0-2.964Z"/><path fill="#D1D1D1" d="M18.815 101.926h24.889a.741.741 0 0 1 0 1.481h-24.89a.74.74 0 1 1 0-1.481Z"/><path fill="#38AD69" d="M15.704 101.185a1.482 1.482 0 1 1-.002 2.965 1.482 1.482 0 0 1 .002-2.965Z"/><path fill="#D1D1D1" d="M18.815 108.889h12.74a.741.741 0 0 1 0 1.481h-12.74a.74.74 0 1 1 0-1.481Z"/><path fill="#868686" d="M15.704 108.148a1.482 1.482 0 1 1-.002 2.965 1.482 1.482 0 0 1 .002-2.965Z"/><path fill="#D1D1D1" d="M18.815 115.852h18.37a.741.741 0 0 1 0 1.481h-18.37a.74.74 0 0 1 0-1.481Z"/><path fill="#868686" d="M15.704 115.111a1.482 1.482 0 1 1-.002 2.965 1.482 1.482 0 0 1 .002-2.965Z"/><path fill="#D1D1D1" d="M18.815 122.815H45.48a.741.741 0 0 1 0 1.481H18.815a.74.74 0 0 1 0-1.481Z"/><path fill="#868686" d="M15.704 122.074a1.482 1.482 0 1 1-.002 2.965 1.482 1.482 0 0 1 .002-2.965Z"/><path fill="#FFCE33" d="m43.26 14.518 1.547 2.052-1.548.912v-2.963Z"/><path fill="#E84F83" d="M43.26 14.518h5.036l-2.07 1.218-2.967-1.218Z"/><path fill="#B7DFF2" d="m43.26 14.518 1.547 2.052 1.42-.834-2.968-1.218Z"/><path fill="#fff" d="M292.316 17.46a1.05 1.05 0 1 0 0-2.1 1.05 1.05 0 0 0 0 2.1Z"/><path fill="#868686" d="M292.316 23.78a1.05 1.05 0 1 0 0-2.1 1.05 1.05 0 0 0 0 2.1Z"/><path fill="#999" d="M292.316 30.102a1.05 1.05 0 1 0 0-2.1 1.05 1.05 0 0 0 0 2.1ZM292.316 36.422a1.05 1.05 0 1 0 0-2.1 1.05 1.05 0 0 0 0 2.1ZM292.316 42.744a1.05 1.05 0 1 0 0-2.1 1.05 1.05 0 0 0 0 2.1ZM292.316 49.065a1.05 1.05 0 1 0 0-2.1 1.05 1.05 0 0 0 0 2.1Z"/><g clip-path="url(#b)"><path fill="#212122" stroke="#202021" d="M396.982 12.5v159h-37.519v-159h37.519Z"/><path fill="#323234" d="M604.889 12H397.481v160h207.408V12Z"/><path fill="#191919" d="M358.963 12h-38.519v160h38.519V12Z"/><path fill="#23A2CD" d="M358.997 33.63h-38.518v5.63h38.518v-5.63Z"/><path fill="#982A04" d="M326.37 170.37a4.149 4.149 0 1 0 0-8.297 4.149 4.149 0 0 0 0 8.297Z"/><path fill="#262627" d="M355.704 162.222h-10.963c-.818 0-1.482.664-1.482 1.482v4.74c0 .819.664 1.482 1.482 1.482h10.963c.818 0 1.481-.663 1.481-1.482v-4.74c0-.818-.663-1.482-1.481-1.482ZM349.037 13.482h-26.074a.741.741 0 0 0-.741.74v4.148c0 .41.332.741.741.741h26.074a.741.741 0 0 0 .741-.74v-4.149c0-.409-.332-.74-.741-.74Z"/><path fill="#868686" d="M323.407 23.111h7.408a.443.443 0 1 1 0 .889h-7.408a.444.444 0 0 1 0-.889Z"/><path fill="#D1D1D1" d="M323.704 28.593h12.444a.741.741 0 0 1 0 1.481h-12.444a.741.741 0 0 1 0-1.481Z"/><path fill="#868686" d="M323.407 69.333h7.408a.443.443 0 1 1 0 .89h-7.408a.444.444 0 0 1 0-.89Z"/><path fill="#D1D1D1" d="M327.259 74.074h12a.741.741 0 0 1 0 1.481h-12a.74.74 0 0 1 0-1.48Z"/><path fill="#fff" d="M323.704 35.704h13.481a.741.741 0 0 1 0 1.481h-13.481a.741.741 0 0 1 0-1.481Z"/><path fill="#D1D1D1" d="M323.704 42.815h11.111a.741.741 0 0 1 0 1.481h-11.111a.741.741 0 0 1 0-1.481ZM323.704 49.926h17.037a.741.741 0 0 1 0 1.481h-17.037a.741.741 0 0 1 0-1.481ZM323.407 57.037h17.037a.741.741 0 0 1 0 1.482h-17.037a.74.74 0 0 1 0-1.482ZM323.407 64.148h17.037a.741.741 0 0 1 0 1.482h-17.037a.74.74 0 0 1 0-1.482Z"/><path fill="#23A2CD" d="M353.333 56.296h1.778a1.482 1.482 0 0 1 0 2.963h-1.778a1.482 1.482 0 0 1 0-2.963Z"/><path fill="#323234" d="M353.333 63.407h1.778a1.482 1.482 0 0 1 0 2.963h-1.778a1.482 1.482 0 0 1 0-2.963Z"/><path fill="#FFCE33" d="M324.148 73.333a1.482 1.482 0 1 1 0 2.965 1.482 1.482 0 0 1 0-2.965Z"/><path fill="#D1D1D1" d="M327.259 81.037h23.852a.741.741 0 0 1 0 1.481h-23.852a.74.74 0 0 1 0-1.481Z"/><path fill="#FFCE33" d="M324.148 80.296a1.482 1.482 0 1 1 0 2.965 1.482 1.482 0 0 1 0-2.965Z"/><path fill="#D1D1D1" d="M327.259 88h9.926a.741.741 0 0 1 0 1.481h-9.926a.74.74 0 0 1 0-1.481Z"/><path fill="#FFCE33" d="M324.148 87.26a1.482 1.482 0 1 1 0 2.964 1.482 1.482 0 0 1 0-2.965Z"/><path fill="#D1D1D1" d="M327.259 94.963h9.185a.741.741 0 0 1 0 1.481h-9.185a.74.74 0 0 1 0-1.481Z"/><path fill="#38AD69" d="M324.148 94.222a1.482 1.482 0 1 1 0 2.965 1.482 1.482 0 0 1 0-2.965Z"/><path fill="#D1D1D1" d="M327.259 101.926h24.889a.741.741 0 0 1 0 1.481h-24.889a.74.74 0 1 1 0-1.481Z"/><path fill="#38AD69" d="M324.148 101.185a1.483 1.483 0 0 1 0 2.963 1.482 1.482 0 0 1 0-2.963Z"/><path fill="#D1D1D1" d="M327.259 108.889H340a.741.741 0 0 1 0 1.481h-12.741a.74.74 0 1 1 0-1.481Z"/><path fill="#868686" d="M324.148 108.148a1.483 1.483 0 0 1 0 2.963 1.482 1.482 0 0 1 0-2.963Z"/><path fill="#D1D1D1" d="M327.259 115.852h18.371a.74.74 0 0 1 0 1.481h-18.371a.74.74 0 0 1 0-1.481Z"/><path fill="#868686" d="M324.148 115.111a1.483 1.483 0 0 1 0 2.963 1.482 1.482 0 0 1 0-2.963Z"/><path fill="#D1D1D1" d="M327.259 122.815h26.667a.741.741 0 0 1 0 1.481h-26.667a.74.74 0 0 1 0-1.481Z"/><path fill="#868686" d="M324.148 122.074a1.483 1.483 0 0 1 0 2.963 1.482 1.482 0 0 1 0-2.963Z"/><path fill="#FFCE33" d="m351.704 14.518 1.548 2.052-1.548.912v-2.963Z"/><path fill="#E84F83" d="M351.704 14.518h5.037l-2.07 1.218-2.967-1.218Z"/><path fill="#B7DFF2" d="m351.704 14.518 1.548 2.052 1.419-.834-2.967-1.218Z"/><path fill="#23A2CD" d="M394.553 47.26H361.96c-.655 0-1.185.53-1.185 1.184v4.297c0 .654.53 1.185 1.185 1.185h32.593c.654 0 1.185-.53 1.185-1.185v-4.297c0-.654-.531-1.185-1.185-1.185Z"/><path fill="#868686" d="M362.043 23.111h17.037a.741.741 0 0 1 0 1.482h-17.037a.741.741 0 0 1 0-1.482ZM400.849 17.333h10.009c.24 0 .435.332.435.741s-.195.74-.435.74h-10.009c-.24 0-.436-.331-.436-.74s.196-.74.436-.74ZM400.766 31.556h8.101c.194 0 .352.331.352.74 0 .41-.157.741-.352.741h-8.101c-.194 0-.353-.332-.353-.74 0-.41.157-.741.353-.741ZM402.6 62.815h11.313c.271 0 .491.332.491.74 0 .41-.22.741-.491.741H402.6c-.271 0-.492-.332-.492-.74 0-.41.221-.741.492-.741ZM402.399 117.926h6.678c.16 0 .29.332.29.741s-.13.74-.29.74h-6.678c-.16 0-.291-.331-.291-.74s.131-.741.291-.741Z"/><path fill="#fff" d="M415.634 17.333h12.735c.305 0 .554.332.554.741s-.247.74-.554.74h-12.735c-.305 0-.554-.331-.554-.74s.247-.74.554-.74Z"/><path fill="#868686" d="M362.336 29.778h23.775c.571 0 1.034.332 1.034.74 0 .41-.462.741-1.034.741h-23.775c-.57 0-1.034-.332-1.034-.74 0-.41.462-.741 1.034-.741ZM362.372 36.444h24.592c.592 0 1.07.332 1.07.741 0 .41-.478.74-1.07.74h-24.592c-.591 0-1.07-.33-1.07-.74 0-.409.479-.74 1.07-.74ZM362.159 43.111h19.685c.473 0 .857.332.857.74 0 .41-.384.742-.857.742h-19.685c-.473 0-.857-.332-.857-.741s.384-.74.857-.74Z"/><path fill="#197791" d="M381.311 16h12.344c.296 0 .536.332.536.74 0 .41-.24.742-.536.742h-12.344c-.296 0-.536-.332-.536-.741 0-.41.24-.741.536-.741Z"/><path fill="#fff" d="M362.043 49.778h17.037a.741.741 0 0 1 0 1.481h-17.037a.741.741 0 0 1 0-1.481Z"/><path fill="#868686" d="M362.259 56.444h22.003c.529 0 .957.332.957.741 0 .41-.428.74-.957.74h-22.003c-.529 0-.957-.33-.957-.74 0-.409.428-.74.957-.74ZM362.043 63.111h17.037a.741.741 0 0 1 0 1.482h-17.037a.741.741 0 0 1 0-1.482ZM362.449 69.778h26.364c.633 0 1.147.332 1.147.74 0 .41-.513.741-1.147.741h-26.364c-.633 0-1.147-.332-1.147-.74 0-.41.513-.741 1.147-.741ZM457.597 25.482h6.64c.216 0 .391.198.391.444s-.175.444-.391.444h-6.64c-.216 0-.391-.198-.391-.444s.175-.444.391-.444ZM494.486 25.482h4.121c.134 0 .243.198.243.444s-.108.444-.243.444h-4.121c-.133 0-.243-.198-.243-.444s.108-.444.243-.444ZM517.028 25.482h4.519c.146 0 .265.198.265.444s-.119.444-.265.444h-4.519c-.146 0-.265-.198-.265-.444s.119-.444.265-.444ZM545.324 25.482h4.519c.147 0 .265.198.265.444s-.118.444-.265.444h-4.519c-.146 0-.265-.198-.265-.444s.119-.444.265-.444ZM593.058 25.482h7.555a.444.444 0 1 1 0 .888h-7.555a.444.444 0 1 1 0-.889Z"/><path fill="#fff" d="M412.653 25.482h3.193c.104 0 .188.198.188.444s-.084.444-.188.444h-3.193c-.103 0-.188-.198-.188-.444s.085-.444.188-.444Z"/><path fill="#262627" d="M601.071 35.26H401.367a.888.888 0 0 0-.888.888v4.148c0 .491.397.89.888.89h199.704a.889.889 0 0 0 .889-.89v-4.148a.889.889 0 0 0-.889-.889Z"/><path fill="#197791" d="M453.947 37.481h-40.741a.741.741 0 1 0 0 1.482h40.741a.74.74 0 0 0 0-1.482Z"/><path fill="url(#c)" d="M411.293 38.222a.74.74 0 1 0-1.48 0 .74.74 0 0 0 1.48 0Z"/><path fill="#868686" d="M489.664 37.63h-32a.592.592 0 1 0 0 1.185h32a.592.592 0 0 0 0-1.185ZM498.553 37.63h-3.717a.592.592 0 1 0 0 1.185h3.717a.592.592 0 0 0 0-1.185ZM521.071 37.63h-3.717a.592.592 0 0 0 0 1.185h3.717a.592.592 0 1 0 0-1.185ZM549.367 37.63h-3.717a.592.592 0 0 0 0 1.185h3.717a.592.592 0 1 0 0-1.185ZM600.465 37.63h-11.987a.592.592 0 0 0 0 1.185h11.987a.593.593 0 0 0 0-1.185Z"/><path fill="#7F7F80" d="M403.886 37.778h-.889v.889h.889v-.89ZM403.886 25.482h-.889v.888h.889v-.889Z"/><path fill="#197791" d="M408.034 37.926h-1.63v.593h1.63v-.593Z"/><path fill="#F35912" d="M453.947 43.556h-40.741a.741.741 0 1 0 0 1.481h40.741a.74.74 0 0 0 0-1.481ZM411.293 44.296a.74.74 0 1 0-1.48 0 .74.74 0 0 0 1.48 0Z"/><path fill="#868686" d="M480.33 43.704h-22.666a.592.592 0 1 0 0 1.185h22.666a.592.592 0 1 0 0-1.185ZM508.034 43.704h-13.198a.592.592 0 1 0 0 1.185h13.198a.593.593 0 0 0 0-1.185ZM521.071 43.704h-3.717a.592.592 0 0 0 0 1.185h3.717a.592.592 0 1 0 0-1.185ZM554.108 43.704h-8.458a.592.592 0 0 0 0 1.185h8.458a.593.593 0 0 0 0-1.185ZM600.465 43.704h-11.987a.592.592 0 0 0 0 1.185h11.987a.593.593 0 0 0 0-1.185Z"/><path fill="#7F7F80" d="M403.886 43.852h-.889v.889h.889v-.89Z"/><path fill="#F35912" d="M408.034 44h-1.63v.593h1.63V44Z"/><path fill="#262627" d="M601.071 47.407H401.367a.888.888 0 0 0-.888.89v4.147c0 .491.397.89.888.89h199.704a.889.889 0 0 0 .889-.89v-4.148a.889.889 0 0 0-.889-.889Z"/><path fill="#7F7F80" d="M453.947 49.63h-40.741a.741.741 0 0 0 0 1.481h40.741a.74.74 0 0 0 0-1.481ZM411.293 50.37a.74.74 0 1 0-1.48 0 .74.74 0 0 0 1.48 0Z"/><path fill="#868686" d="M484.775 49.778h-27.111a.592.592 0 1 0 0 1.185h27.111a.592.592 0 0 0 0-1.185ZM498.553 49.778h-3.717a.592.592 0 1 0 0 1.185h3.717a.592.592 0 0 0 0-1.185ZM521.071 49.778h-3.717a.592.592 0 0 0 0 1.185h3.717a.593.593 0 1 0 0-1.185ZM549.367 49.778h-3.717a.592.592 0 0 0 0 1.185h3.717a.593.593 0 1 0 0-1.185ZM600.465 49.778h-11.987a.592.592 0 0 0 0 1.185h11.987a.593.593 0 0 0 0-1.185Z"/><path fill="#7F7F80" d="M403.886 49.926h-.889v.889h.889v-.89ZM408.034 50.074h-1.63v.593h1.63v-.593Z"/><path fill="#197791" d="M442.404 55.704h-29.198a.741.741 0 1 0 0 1.481h29.198a.74.74 0 1 0 0-1.481Z"/><path fill="#38AD69" d="M411.293 56.444a.74.74 0 1 0-1.48 0 .74.74 0 0 0 1.48 0Z"/><path fill="#868686" d="M489.664 55.852h-32a.592.592 0 1 0 0 1.185h32a.592.592 0 0 0 0-1.185ZM504.182 55.852h-9.346a.592.592 0 1 0 0 1.185h9.346a.592.592 0 1 0 0-1.185ZM521.071 55.852h-3.717a.592.592 0 0 0 0 1.185h3.717a.592.592 0 1 0 0-1.185ZM555.738 55.852H545.65a.592.592 0 0 0 0 1.185h10.088a.592.592 0 0 0 0-1.185ZM600.465 55.852h-17.32a.592.592 0 0 0 0 1.185h17.32a.593.593 0 0 0 0-1.185Z"/><path fill="#7F7F80" d="M403.886 56h-.889v.889h.889V56Z"/><path fill="#197791" d="M408.034 56.148h-1.63v.593h1.63v-.593Z"/><path fill="#262627" d="M601.071 66.519H401.367a.888.888 0 0 0-.888.888v4.149c0 .49.397.889.888.889h199.704a.889.889 0 0 0 .889-.89v-4.148a.889.889 0 0 0-.889-.888Z"/><path fill="#197791" d="M453.947 68.74h-40.741a.741.741 0 0 0 0 1.482h40.741a.74.74 0 0 0 0-1.481Z"/><path fill="url(#d)" d="M411.293 69.481a.74.74 0 1 0-1.48 0 .74.74 0 0 0 1.48 0Z"/><path fill="#868686" d="M489.664 68.889h-32a.592.592 0 1 0 0 1.185h32a.592.592 0 0 0 0-1.185ZM498.553 68.889h-3.717a.592.592 0 1 0 0 1.185h3.717a.592.592 0 0 0 0-1.185ZM522.997 68.889h-5.643a.592.592 0 0 0 0 1.185h5.643a.593.593 0 0 0 0-1.185ZM549.367 68.889h-3.717a.592.592 0 0 0 0 1.185h3.717a.592.592 0 1 0 0-1.185ZM600.465 68.889h-11.987a.592.592 0 0 0 0 1.185h11.987a.593.593 0 0 0 0-1.185Z"/><path fill="#7F7F80" d="M403.886 69.037h-.889v.889h.889v-.889Z"/><path fill="#197791" d="M408.034 69.185h-1.63v.593h1.63v-.593ZM453.947 74.815h-40.741a.741.741 0 0 0 0 1.481h40.741a.74.74 0 0 0 0-1.481ZM411.293 75.556a.74.74 0 1 0-1.48-.002.74.74 0 0 0 1.48.002Z"/><path fill="#868686" d="M480.33 74.963h-22.666a.592.592 0 1 0 0 1.185h22.666a.593.593 0 1 0 0-1.185ZM508.034 74.963h-13.198a.592.592 0 1 0 0 1.185h13.198a.593.593 0 0 0 0-1.185ZM521.071 74.963h-3.717a.592.592 0 0 0 0 1.185h3.717a.593.593 0 1 0 0-1.185ZM554.701 74.963h-9.051a.592.592 0 0 0 0 1.185h9.051a.592.592 0 0 0 0-1.185ZM600.465 74.963h-17.616a.593.593 0 0 0 0 1.185h17.616a.593.593 0 0 0 0-1.185Z"/><path fill="#7F7F80" d="M403.886 75.111h-.889V76h.889v-.889Z"/><path fill="#197791" d="M408.034 75.26h-1.63v.592h1.63v-.593Z"/><path fill="#262627" d="M601.071 78.667H401.367a.888.888 0 0 0-.888.888v4.149c0 .49.397.889.888.889h199.704a.889.889 0 0 0 .889-.89v-4.148a.889.889 0 0 0-.889-.888Z"/><path fill="#7F7F80" d="M453.947 80.889h-40.741a.741.741 0 1 0 0 1.481h40.741a.74.74 0 0 0 0-1.481ZM411.293 81.63a.74.74 0 1 0-1.48-.002.74.74 0 0 0 1.48.002Z"/><path fill="#868686" d="M484.775 81.037h-27.111a.593.593 0 1 0 0 1.185h27.111a.592.592 0 0 0 0-1.185ZM498.553 81.037h-3.717a.593.593 0 1 0 0 1.185h3.717a.592.592 0 0 0 0-1.185ZM523.886 81.037h-6.532a.592.592 0 0 0 0 1.185h6.532a.593.593 0 0 0 0-1.185ZM552.182 81.037h-6.532a.592.592 0 0 0 0 1.185h6.532a.593.593 0 0 0 0-1.185ZM600.465 81.037h-9.172a.592.592 0 0 0 0 1.185h9.172a.592.592 0 1 0 0-1.185Z"/><path fill="#7F7F80" d="M403.886 81.185h-.889v.89h.889v-.89ZM408.034 81.333h-1.63v.593h1.63v-.593Z"/><path fill="#197791" d="M442.404 86.963h-29.198a.741.741 0 1 0 0 1.481h29.198a.74.74 0 1 0 0-1.481Z"/><path fill="#38AD69" d="M411.293 87.704a.74.74 0 1 0-1.48-.001.74.74 0 0 0 1.48 0Z"/><path fill="#868686" d="M489.664 87.111h-32a.592.592 0 1 0 0 1.185h32a.592.592 0 0 0 0-1.185ZM504.182 87.111h-9.346a.592.592 0 1 0 0 1.185h9.346a.592.592 0 1 0 0-1.185ZM521.071 87.111h-3.717a.592.592 0 0 0 0 1.185h3.717a.592.592 0 1 0 0-1.185ZM556.034 87.111H545.65a.592.592 0 0 0 0 1.185h10.384a.593.593 0 0 0 0-1.185ZM600.465 87.111H583.59a.592.592 0 1 0 0 1.185h16.875a.593.593 0 0 0 0-1.185Z"/><path fill="#7F7F80" d="M403.886 87.26h-.889v.888h.889v-.889Z"/><path fill="#197791" d="M408.034 87.407h-1.63V88h1.63v-.593Z"/><path fill="#262627" d="M601.071 90.222H401.367a.888.888 0 0 0-.888.89v4.147c0 .491.397.89.888.89h199.704a.889.889 0 0 0 .889-.89v-4.148a.889.889 0 0 0-.889-.889Z"/><path fill="#197791" d="M453.947 92.444h-40.741a.741.741 0 0 0 0 1.482h40.741a.74.74 0 0 0 0-1.482Z"/><path fill="url(#e)" d="M411.293 93.185a.74.74 0 1 0-1.48-.001.74.74 0 0 0 1.48.001Z"/><path fill="#868686" d="M489.664 92.593h-32a.592.592 0 1 0 0 1.185h32a.592.592 0 0 0 0-1.185ZM498.553 92.593h-3.717a.592.592 0 1 0 0 1.185h3.717a.592.592 0 0 0 0-1.185ZM524.627 92.593h-7.273a.592.592 0 0 0 0 1.185h7.273a.592.592 0 0 0 0-1.185ZM556.923 92.593H545.65a.592.592 0 0 0 0 1.185h11.273a.593.593 0 0 0 0-1.185ZM600.465 92.593h-11.987a.592.592 0 0 0 0 1.185h11.987a.593.593 0 0 0 0-1.185Z"/><path fill="#7F7F80" d="M403.886 92.74h-.889v.89h.889v-.89Z"/><path fill="#197791" d="M408.034 92.889h-1.63v.593h1.63v-.593Z"/><path fill="#F35912" d="M453.947 98.519h-40.741a.741.741 0 0 0 0 1.481h40.741a.74.74 0 0 0 0-1.481ZM411.293 99.26a.74.74 0 1 0-1.48-.002.74.74 0 0 0 1.48.001Z"/><path fill="#868686" d="M480.33 98.667h-22.666a.592.592 0 1 0 0 1.185h22.666a.592.592 0 1 0 0-1.185ZM508.034 98.667h-13.198a.592.592 0 1 0 0 1.185h13.198a.593.593 0 0 0 0-1.185ZM522.405 98.667h-5.051a.592.592 0 0 0 0 1.185h5.051a.592.592 0 0 0 0-1.185ZM554.701 98.667h-9.051a.592.592 0 0 0 0 1.185h9.051a.592.592 0 0 0 0-1.185ZM600.465 98.667h-17.172a.592.592 0 0 0 0 1.185h17.172a.592.592 0 1 0 0-1.185Z"/><path fill="#7F7F80" d="M403.886 98.815h-.889v.889h.889v-.89Z"/><path fill="#F35912" d="M408.034 98.963h-1.63v.593h1.63v-.593Z"/><path fill="#262627" d="M601.071 102.37H401.367a.888.888 0 0 0-.888.889v4.148c0 .491.397.889.888.889h199.704a.889.889 0 0 0 .889-.889v-4.148a.889.889 0 0 0-.889-.889Z"/><path fill="#7F7F80" d="M453.947 104.593h-40.741a.74.74 0 1 0 0 1.481h40.741a.74.74 0 0 0 0-1.481ZM411.293 105.333a.74.74 0 1 0-1.48 0 .74.74 0 0 0 1.48 0Z"/><path fill="#868686" d="M484.775 104.741h-27.111a.592.592 0 1 0 0 1.185h27.111a.592.592 0 0 0 0-1.185ZM498.553 104.741h-3.717a.592.592 0 1 0 0 1.185h3.717a.592.592 0 0 0 0-1.185ZM523.738 104.741h-6.384a.592.592 0 1 0 0 1.185h6.384a.592.592 0 0 0 0-1.185ZM550.701 104.741h-5.051a.592.592 0 1 0 0 1.185h5.051a.592.592 0 0 0 0-1.185ZM600.465 104.741h-19.838a.592.592 0 1 0 0 1.185h19.838a.593.593 0 0 0 0-1.185Z"/><path fill="#7F7F80" d="M403.886 104.889h-.889v.889h.889v-.889ZM408.034 105.037h-1.63v.593h1.63v-.593Z"/><path fill="#197791" d="M442.404 110.667h-29.198a.74.74 0 1 0 0 1.481h29.198a.74.74 0 1 0 0-1.481Z"/><path fill="#FFCE33" d="M411.293 111.407a.74.74 0 1 0-1.48 0 .74.74 0 0 0 1.48 0Z"/><path fill="#868686" d="M489.664 110.815h-32a.592.592 0 1 0 0 1.185h32a.592.592 0 0 0 0-1.185ZM504.182 110.815h-9.346a.592.592 0 1 0 0 1.185h9.346a.592.592 0 1 0 0-1.185ZM521.071 110.815h-3.717a.592.592 0 1 0 0 1.185h3.717a.592.592 0 1 0 0-1.185ZM557.071 110.815H545.65a.592.592 0 1 0 0 1.185h11.421a.593.593 0 0 0 0-1.185ZM600.465 110.815h-19.987a.592.592 0 1 0 0 1.185h19.987a.593.593 0 0 0 0-1.185Z"/><path fill="#7F7F80" d="M403.886 110.963h-.889v.889h.889v-.889Z"/><path fill="#197791" d="M408.034 111.111h-1.63v.593h1.63v-.593Z"/><path fill="#262627" d="M601.071 121.481H401.367a.888.888 0 0 0-.888.889v4.149c0 .49.397.888.888.888h199.704a.889.889 0 0 0 .889-.888v-4.149a.889.889 0 0 0-.889-.889Z"/><path fill="#197791" d="M453.947 123.704h-40.741a.74.74 0 1 0 0 1.481h40.741a.74.74 0 1 0 0-1.481Z"/><path fill="url(#f)" d="M411.293 124.444a.74.74 0 1 0-1.48 0 .74.74 0 0 0 1.48 0Z"/><path fill="#868686" d="M489.664 123.852h-32a.592.592 0 1 0 0 1.185h32a.592.592 0 0 0 0-1.185ZM498.553 123.852h-3.717a.592.592 0 1 0 0 1.185h3.717a.592.592 0 0 0 0-1.185ZM520.775 123.852h-3.421a.592.592 0 1 0 0 1.185h3.421a.593.593 0 0 0 0-1.185ZM549.367 123.852h-3.717a.592.592 0 1 0 0 1.185h3.717a.592.592 0 1 0 0-1.185ZM600.465 123.852h-14.801a.592.592 0 1 0 0 1.185h14.801a.592.592 0 1 0 0-1.185Z"/><path fill="#7F7F80" d="M403.886 124h-.889v.889h.889V124Z"/><path fill="#197791" d="M408.034 124.148h-1.63v.593h1.63v-.593Z"/><path fill="#7F7F80" d="M453.947 129.778h-40.741a.74.74 0 1 0 0 1.481h40.741a.74.74 0 1 0 0-1.481ZM411.293 130.519a.74.74 0 1 0-1.48-.002.74.74 0 0 0 1.48.002Z"/><path fill="#868686" d="M480.33 129.926h-22.666a.592.592 0 1 0 0 1.185h22.666a.592.592 0 1 0 0-1.185ZM508.034 129.926h-13.198a.592.592 0 1 0 0 1.185h13.198a.593.593 0 1 0 0-1.185ZM522.405 129.926h-5.051a.592.592 0 0 0 0 1.185h5.051a.592.592 0 1 0 0-1.185ZM554.701 129.926h-9.051a.592.592 0 0 0 0 1.185h9.051a.592.592 0 1 0 0-1.185ZM600.465 129.926h-17.172a.592.592 0 0 0 0 1.185h17.172a.592.592 0 1 0 0-1.185Z"/><path fill="#7F7F80" d="M403.886 130.074h-.889v.889h.889v-.889ZM408.034 130.222h-1.63v.593h1.63v-.593Z"/><path fill="#262627" d="M601.071 133.63H401.367a.888.888 0 0 0-.888.889v4.148c0 .491.397.889.888.889h199.704a.889.889 0 0 0 .889-.889v-4.148a.889.889 0 0 0-.889-.889Z"/><path fill="#7F7F80" d="M453.947 135.852h-40.741a.74.74 0 1 0 0 1.481h40.741a.74.74 0 1 0 0-1.481ZM411.293 136.593a.74.74 0 1 0-1.48-.002.74.74 0 0 0 1.48.002Z"/><path fill="#868686" d="M484.775 136h-27.111a.592.592 0 1 0 0 1.185h27.111a.592.592 0 1 0 0-1.185ZM498.553 136h-3.717a.592.592 0 1 0 0 1.185h3.717a.592.592 0 1 0 0-1.185ZM520.182 136h-2.828a.592.592 0 0 0 0 1.185h2.828a.592.592 0 1 0 0-1.185ZM552.182 136h-6.532a.592.592 0 0 0 0 1.185h6.532a.593.593 0 1 0 0-1.185ZM600.465 136h-16.431a.592.592 0 0 0 0 1.185h16.431a.592.592 0 1 0 0-1.185Z"/><path fill="#7F7F80" d="M403.886 136.148h-.889v.889h.889v-.889ZM408.034 136.296h-1.63v.593h1.63v-.593Z"/><path fill="#197791" d="M442.404 141.926h-29.198a.741.741 0 0 0 0 1.481h29.198a.74.74 0 1 0 0-1.481Z"/><path fill="#FFCE33" d="M411.293 142.667a.74.74 0 1 0-1.48-.001.74.74 0 0 0 1.48.001Z"/><path fill="#868686" d="M489.664 142.074h-32a.592.592 0 1 0 0 1.185h32a.592.592 0 1 0 0-1.185ZM504.182 142.074h-9.346a.592.592 0 1 0 0 1.185h9.346a.592.592 0 1 0 0-1.185ZM521.071 142.074h-3.717a.592.592 0 0 0 0 1.185h3.717a.592.592 0 1 0 0-1.185ZM557.071 142.074H545.65a.592.592 0 0 0 0 1.185h11.421a.593.593 0 1 0 0-1.185ZM600.465 142.074h-17.468a.593.593 0 0 0 0 1.185h17.468a.593.593 0 1 0 0-1.185Z"/><path fill="#7F7F80" d="M403.886 142.222h-.889v.889h.889v-.889Z"/><path fill="#197791" d="M408.034 142.37h-1.63v.593h1.63v-.593Z"/><path fill="#262627" d="M601.071 145.185H401.367a.888.888 0 0 0-.888.889v4.148c0 .491.397.889.888.889h199.704a.889.889 0 0 0 .889-.889v-4.148a.889.889 0 0 0-.889-.889Z"/><path fill="#197791" d="M453.947 147.407h-40.741a.741.741 0 0 0 0 1.482h40.741a.74.74 0 0 0 0-1.482Z"/><path fill="url(#g)" d="M411.293 148.148a.74.74 0 1 0-1.48-.001.74.74 0 0 0 1.48.001Z"/><path fill="#868686" d="M489.664 147.556h-32a.592.592 0 1 0 0 1.185h32a.593.593 0 0 0 0-1.185ZM498.553 147.556h-3.717a.592.592 0 1 0 0 1.185h3.717a.593.593 0 0 0 0-1.185ZM523.145 147.556h-5.791a.592.592 0 1 0 0 1.185h5.791a.593.593 0 0 0 0-1.185ZM552.182 147.556h-6.532a.592.592 0 1 0 0 1.185h6.532a.594.594 0 0 0 0-1.185ZM600.465 147.556h-11.987a.592.592 0 1 0 0 1.185h11.987a.594.594 0 0 0 0-1.185Z"/><path fill="#7F7F80" d="M403.886 147.704h-.889v.889h.889v-.889Z"/><path fill="#197791" d="M408.034 147.852h-1.63v.592h1.63v-.592Z"/><path fill="#F35912" d="M453.947 153.481h-40.741a.741.741 0 0 0 0 1.482h40.741a.74.74 0 0 0 0-1.482ZM411.293 154.222a.74.74 0 1 0-1.48-.001.74.74 0 0 0 1.48.001Z"/><path fill="#868686" d="M480.33 153.63h-22.666a.592.592 0 1 0 0 1.185h22.666a.593.593 0 0 0 0-1.185ZM508.034 153.63h-13.198a.592.592 0 1 0 0 1.185h13.198a.594.594 0 0 0 0-1.185ZM521.071 153.63h-3.717a.592.592 0 1 0 0 1.185h3.717a.593.593 0 0 0 0-1.185ZM554.701 153.63h-9.051a.592.592 0 1 0 0 1.185h9.051a.593.593 0 0 0 0-1.185ZM600.465 153.63h-16.431a.592.592 0 1 0 0 1.185h16.431a.593.593 0 0 0 0-1.185Z"/><path fill="#7F7F80" d="M403.886 153.778h-.889v.889h.889v-.889Z"/><path fill="#F35912" d="M408.034 153.926h-1.63v.593h1.63v-.593Z"/><path fill="#262627" d="M601.071 157.333H401.367a.888.888 0 0 0-.888.889v4.148c0 .491.397.889.888.889h199.704a.889.889 0 0 0 .889-.889v-4.148a.889.889 0 0 0-.889-.889Z"/><path fill="#7F7F80" d="M453.947 159.556h-40.741a.74.74 0 1 0 0 1.481h40.741a.74.74 0 0 0 0-1.481ZM411.293 160.296a.74.74 0 1 0-1.48 0 .74.74 0 0 0 1.48 0Z"/><path fill="#868686" d="M484.775 159.704h-27.111a.592.592 0 1 0 0 1.185h27.111a.592.592 0 0 0 0-1.185ZM498.553 159.704h-3.717a.592.592 0 1 0 0 1.185h3.717a.592.592 0 0 0 0-1.185ZM522.701 159.704h-5.347a.592.592 0 1 0 0 1.185h5.347a.592.592 0 0 0 0-1.185ZM552.627 159.704h-6.977a.592.592 0 1 0 0 1.185h6.977a.592.592 0 0 0 0-1.185ZM600.465 159.704h-11.987a.592.592 0 1 0 0 1.185h11.987a.593.593 0 0 0 0-1.185Z"/><path fill="#7F7F80" d="M403.886 159.852h-.889v.889h.889v-.889ZM408.034 160h-1.63v.593h1.63V160ZM442.404 165.63h-29.198a.74.74 0 1 0 0 1.481h29.198a.74.74 0 1 0 0-1.481ZM411.293 166.37a.74.74 0 1 0-1.48 0 .74.74 0 0 0 1.48 0Z"/><path fill="#868686" d="M489.664 165.778h-32a.592.592 0 1 0 0 1.185h32a.592.592 0 0 0 0-1.185ZM504.182 165.778h-9.346a.592.592 0 1 0 0 1.185h9.346a.592.592 0 1 0 0-1.185ZM523.738 165.778h-6.384a.592.592 0 1 0 0 1.185h6.384a.592.592 0 0 0 0-1.185ZM551.59 165.778h-5.94a.592.592 0 1 0 0 1.185h5.94a.592.592 0 0 0 0-1.185ZM600.465 165.778h-18.357a.592.592 0 1 0 0 1.185h18.357a.593.593 0 0 0 0-1.185Z"/><path fill="#7F7F80" d="M403.886 165.926h-.889v.889h.889v-.889ZM408.034 166.074h-1.63v.593h1.63v-.593Z"/></g><path stroke="#000" stroke-width="4" d="M601.889 10a5 5 0 0 1 5 5v159H318.444V15a5 5 0 0 1 5-5h278.445Z"/><defs><linearGradient id="a" x1="53.333" x2="58.37" y1="168" y2="168" gradientUnits="userSpaceOnUse"><stop stop-color="#23A2CD"/><stop offset="1" stop-color="#D75B83"/></linearGradient><linearGradient id="c" x1="409.812" x2="411.293" y1="38.222" y2="38.222" gradientUnits="userSpaceOnUse"><stop stop-color="#23A2CD"/><stop offset="1" stop-color="#D75B83"/></linearGradient><linearGradient id="d" x1="320.444" x2="320.593" y1="69.481" y2="69.481" gradientUnits="userSpaceOnUse"><stop stop-color="#23A2CD"/><stop offset="1" stop-color="#D75B83"/></linearGradient><linearGradient id="e" x1="320.444" x2="320.593" y1="93.185" y2="93.185" gradientUnits="userSpaceOnUse"><stop stop-color="#23A2CD"/><stop offset="1" stop-color="#D75B83"/></linearGradient><linearGradient id="f" x1="320.444" x2="320.593" y1="124.444" y2="124.444" gradientUnits="userSpaceOnUse"><stop stop-color="#23A2CD"/><stop offset="1" stop-color="#D75B83"/></linearGradient><linearGradient id="g" x1="320.444" x2="320.593" y1="148.148" y2="148.148" gradientUnits="userSpaceOnUse"><stop stop-color="#23A2CD"/><stop offset="1" stop-color="#D75B83"/></linearGradient><clipPath id="b"><path fill="#fff" d="M320.444 15a3 3 0 0 1 3-3h278.445a3 3 0 0 1 3 3v157H320.444V15Z"/></clipPath></defs></svg>