<svg xmlns="http://www.w3.org/2000/svg" xml:space="preserve" width="145" height="205" viewBox="-62 0 270 205"><path fill="#B7DFF2" d="M72.5 2.5c3.1 0 5.7 2.5 5.7 5.7 0 3.1-2.5 5.7-5.7 5.7-3.1 0-5.7-2.5-5.7-5.7 0-3.1 2.6-5.7 5.7-5.7m0-1.9c-4.2 0-7.6 3.4-7.6 7.6 0 4.2 3.4 7.6 7.6 7.6 4.2 0 7.6-3.4 7.6-7.6C80.1 4 76.7.6 72.5.6z"/><path fill="#045972" d="M.7 186.8h143.6v17.5H.7z"/><path fill="#5EAFCE" d="M144.3 92.3c-.1-25.3-8.8-76.5-71.8-76.5C9.2 15.8.7 70.6.7 92.8v94.1h143.5v-94l.1-.6zm-37.2 41.5h6v-14.4h-6V94.2h11.4v61.6h-11.4v-22zm0-12.5h4.1v10.6h-4.1v-10.6zm13.3-27.1h10.8v61.6h-10.8V94.2zm12.6 0h7.5v61.6H133V94.2zm-4.1-47.3c9.9 15.9 11.5 35.1 11.6 45.4h-20.1c-.1-16.7-3.8-55.1-26.3-70.2 15.3 3.8 26.9 12.1 34.8 24.8zM4.5 183V92.8C4.5 85 5.6 65.1 16.1 48c8-13.1 19.5-21.6 34.6-25.7-22.5 15.4-26 54.2-26 70.5v90.3H4.5zm23.9 0V92.8c0-5.9.6-26.7 7.8-44.8 6.2-15.6 15.7-24.8 28-27.5-10.4 13.5-12 53-12 72.3v90.3H28.4zm27.6 0V92.8c0-43.1 6.8-73.2 16.5-73.2 5.4 0 10.2 9.6 13.2 26.4C88.6 62.9 89 82.5 89 92.8V183H56zm36.8 0V92.7c0-19.5-1.6-58.8-12.1-72.3 12.4 2.7 21.8 11.9 28 27.5 7.1 17.6 7.8 37.8 7.8 44.4h-11.4v65.4h11.4V183H92.8zm47.7 0h-20.1v-25.3h20.1V183z"/></svg>