<svg xmlns="http://www.w3.org/2000/svg" xml:space="preserve" width="270" height="205"><path fill="#FFCE33" d="M8.6 124.1c.8.9 1.7 1.7 2.1 2.8-1.5-1.4-3.1-2.4-4.9-3.2.5.9 1.3 1.5 1.8 2.4-2.3-1.9-4.9-.6-7 1.1 1.8 4.1 5.7 5.7 10 5.4v.1c-1.7.5-3.5.4-5.2.6v.1c4.6 2.4 9.6 6.1 14.7 3.1v.1c-.9 1.1-2.9 1.1-3.7 2.1 2.4.3 4.7-1.5 7-2.3-.5 1.2-1.7 1.8-2.6 2.6v.1c5.1 1.5 10 1.3 14.4-1.8v.1c-.7.9-1.7 1.5-2.6 2.1 4.7.5 10.8.9 13.7-3.6-.3 1.2-1.3 3-.2 4 .6-10.5 14.3-6.9 19.3-13.3-6.2 3.1-15.7 7.8-21.1.4-2.3-1.3-5.1-.3-7.4-1.8-.6-.2-3 .7-3.3.2 1.2 1.7 3.2 2.2 4.6 3.6-2.4-.8-4.2-1.9-5.9-3.7 1 1.9 2.7 2.6 4.1 4.1-2-.7-3.6-2.2-5.3-3.4-1.9-1-4.3-.9-6.4-1.5.9 1.9 2 3.6 3.2 5.3h-.1c-2.1-1.4-3.5-3.6-5.6-4.8-1.9-.3-4.2-1-5.9-.4.8 1.1 1.9 2.1 2.5 3.4h-.1c-3.6-4.3-4.9-4.1-10.1-4.3-.2.1-.2.2 0 .4z"/><path fill="#5EAFCE" d="M252.5 137.7c-.3-.9-.2-2 0-3-1.4 1.5-4.4 3.8-6.6 3.7.6-1.3 2.1-2.1 2.7-3.4-1.5.7-2.6 2.4-4.1 3-2.8.3-7 .8-9.1-.8 0 .1 3.3-2.1 3.4-2.5-2.5 1.4-5.6 3.8-8.5 2.5 1.5-.4 3.9-1.7 5.1-2.6-1.3.1-3.5 1.3-4.7 1.8-5.5.7-11.6-2.7-15.2-6.8 0-.1-.1-.3-.1-.4 1.8-3.3 5.8-4 9.2-4.7.5.4 3 2.7 3.6 3-1.5-1.9-2-2.9-2.5-3.3 1.7-.7 2.3 1.8 3.7 2.1-.5-1.2-.9-1.1-1.1-2 3.7-1.9 11-1.1 15.3-1 1.5 1.2 2.2 3.7 4 4.8-.8-1.3-2.7-3.6-3.3-4.9 2.5 1.6 6.3.7 7.6 3.8.1-1 .4-2.3 1.1-3-.3.5-.3 3.6.9 4.4-.3-1.5-.3-2.3.4-3.4-1.1 10 10.4 3.3 15.2 2.3-4.9 5.2-16.8 1-17 10.4z"/><path fill="#E84F83" d="M196.6 110.3c5.6.5 9.4.2 14.9.1-3.6-1.2-4.7-2.6-6.1-4 4.8 3.4 11.5 5.4 16.6 1.5-3.9-7.7-13.4-12-21.8-10.3 1.6-.5 3.1-1.2 5.3-1.4-2.2-1.2-5.5-.4-7.8.5 1.2-1.1 2.7-1.7 4.3-1.6-5.8-.8-13-2.1-16.6 3.7.5-1.7 1.7-3.1 3.3-3.9-4.8.4-6.6 3.6-10 5.9-4.5 2.9-11.1 1.7-14.9 5.9 19.9-8 10.9-.6 27.6 3.2-1-1.1-3.1-3.1-4.1-4.9 1.5 1.3 4.1 4 5.8 5"/><path fill="#B7DFF2" d="M144 158.1c.3 0 .6-.1 1-.2-2-.9-3.4-2.1-4.6-3.5l.1-.1c7 6.8 15.4.4 23.4.4-1.9-1.7-5.3-1.6-6.6-3.6 2.9.7 5.9 2.4 8.9 2.5 5.6-2.8 11.8-6.2 15-11.8-5.4-.4-10.2-3.6-15.7-3.3-5.4.6-10.6.6-16 .2-3.5 1.8-5 4.5-8.2 6.5 0 0 .4-.5.3-.5 1.8-2.7 3.7-4.4 6.4-6.3-3-.7-6 1.2-8.9 4.3.5-2.3 2.3-4.2 4.2-5.1-5.9.4-11.6.8-17.5.3-5.9-.7-8.3 4.7-13 6.9 2.6-2.2 4.5-5.3 7.9-6.7-4.5-.1-7.5 4.2-10.3 7.2 2.1-3.3 3.4-5.2 6.6-6.9-7 0-6.2 5.8-11 8.3-10.7.2-18.9-3.4-26.4-6.1 6.6 6.5 18.8 6.8 27 9.1 2 3 3.9 6.8 7.9 7.6-1.4-1.8-3.6-3.5-3.8-6 3.4 4.1 3.9 6.7 10 7.1-2.9-2.1-5.3-4.9-7.5-7.7 3.7 2.7 6.1 7.2 10.6 8.1 6.7.8 13.6-.3 20.2-.7z"/><path fill="#E54011" d="M58.2 105.9c1.1 1.1 2.1 2.2 3.2 3.3-.6-.9-1.2-1.9-1.8-2.8 1.6 2.3 4.9 1.8 7.3 2.7-1-1.1-2.2-2.2-3.4-3.1 3.3 2.2 4.4 3.9 8.7 3.2-.3-.1-1.8-1.3-1.9-1.6 2.9 2.3 4.1 1.2 6.8 1.1-.6-.6-.8-1.3-3.8-3.3 1.8.4 3.6 2.1 5 2.8 4.2.4 8.4-2.4 11.9-4.5-.7-.2-1.5-.3-2.1-.6 2.8.8 4.6-1.3 4.4-4 0-.1-3.1 1.3-3.1 1.2s3-2 3-2.1c0-2.3-2.8-1.7-4.2-1.2-3-.8-4.9 1.2-7.1 3 1.1-1 2-2.2 2.6-3.5-1.4-.2-2.8.3-3.8 1.2.4-.5.7-1 1-1.6-7.4-.2-6 2.2-11.1 4.2 1.4-1.2 2.6-2.7 3.5-4.4-2.1 1-3.3 3.6-5.4 4.8 1.6-1.2 3-2.8 3.9-4.7-4.9.9-9.6.7-13.2 4.8 1.3-1.4 2.3-3 2.9-4.7-4.5 8.4-12 6.6-19.9 4.7 3.6 4.2 14.5-.8 16.1 6.5 0-.7 0-1.5-.3-2.2.3.2.5.5.8.8z"/></svg>