<svg viewBox="0 0 16 16" xmlns="http://www.w3.org/2000/svg">
<path d="M5.02441 0.507841C6.07031 0.559888 7.13495 0.879454 7.99902 1.64944C9.31714 0.472698 11.0945 0.352674 12.5879 0.618192C13.9395 0.858571 15.1745 1.4322 15.8213 1.97561C15.9344 2.07062 16 2.21074 16 2.35843V15C16 15.1944 15.8871 15.3711 15.7109 15.4532C15.5349 15.5351 15.3275 15.5077 15.1787 15.3828C14.6409 14.931 13.3978 14.3511 12.0254 14.1866C10.6617 14.023 9.2961 14.2814 8.37598 15.3301C8.28104 15.4382 8.1439 15.5 8 15.5C7.8561 15.5 7.71896 15.4382 7.62402 15.3301C6.7039 14.2814 5.33831 14.023 3.97461 14.1866C2.60223 14.3511 1.35906 14.931 0.821289 15.3828C0.672527 15.5077 0.46514 15.5351 0.289062 15.4532C0.112867 15.3711 0 15.1944 0 15V2.35843C0 2.21074 0.0656417 2.07062 0.178711 1.97561C0.630815 1.59578 1.35918 1.20893 2.19629 0.928739C3.0393 0.64662 4.03287 0.458568 5.02441 0.507841ZM1 14.0791C1.76252 13.6742 2.7861 13.3216 3.85547 13.1934C5.24292 13.027 6.80879 13.231 8 14.2949C9.19121 13.231 10.7571 13.027 12.1445 13.1934C13.2139 13.3216 14.2375 13.6742 15 14.0791V2.6055C14.4617 2.22688 13.5007 1.79611 12.4121 1.60257C10.931 1.33931 9.38415 1.53885 8.37598 2.68753C8.28104 2.79572 8.14394 2.85843 8 2.85843C7.85606 2.85843 7.71896 2.79572 7.62402 2.68753C6.92877 1.89538 5.98559 1.55721 4.97559 1.50686C4.13573 1.46507 3.26782 1.6246 2.51367 1.87698C1.87551 2.09058 1.34687 2.3616 1 2.6055V14.0791Z" fill="#429ED7"/>
<path d="M1.80664 11.3408C2.70618 10.8011 5.02994 10.0428 7.19336 11.3408C7.37078 11.4474 7.4278 11.6779 7.32129 11.8555C7.21471 12.033 6.98421 12.0909 6.80664 11.9844C4.97028 10.8827 2.96062 11.5241 2.19336 11.9844C2.01579 12.0909 1.78529 12.033 1.67871 11.8555C1.5722 11.6779 1.62922 11.4474 1.80664 11.3408Z" fill="#429ED7"/>
<path d="M1.80664 9.34082C2.70618 8.8011 5.02994 8.04277 7.19336 9.34082C7.37078 9.44743 7.4278 9.67795 7.32129 9.85547C7.21471 10.033 6.98421 10.0909 6.80664 9.98438C4.97028 8.8827 2.96062 9.52412 2.19336 9.98438C2.01579 10.0909 1.78529 10.033 1.67871 9.85547C1.5722 9.67795 1.62922 9.44743 1.80664 9.34082Z" fill="#429ED7"/>
<path d="M10.4916 8.63064L9.68543 11.8552C9.63717 12.0483 9.36283 12.0483 9.31457 11.8552L8.50843 8.63064C8.49131 8.56216 8.43784 8.50869 8.36936 8.49157L5.14478 7.68543C4.95174 7.63717 4.95174 7.36283 5.14478 7.31457L8.36936 6.50843C8.43784 6.49131 8.49131 6.43784 8.50843 6.36936L9.31457 3.14478C9.36283 2.95174 9.63717 2.95174 9.68543 3.14478L10.4916 6.36936C10.5087 6.43784 10.5622 6.49131 10.6306 6.50843L13.8552 7.31457C14.0483 7.36283 14.0483 7.63717 13.8552 7.68543L10.6306 8.49157C10.5622 8.50869 10.5087 8.56216 10.4916 8.63064Z" fill="#429ED7"/>
<path d="M11.8518 9.74515L13.6278 9.96715C13.7372 9.98082 13.7404 10.1381 13.6317 10.1562L12.4344 10.3558C12.3941 10.3625 12.3625 10.3941 12.3558 10.4344L12.1562 11.6317C12.1381 11.7404 11.9808 11.7372 11.9672 11.6278L11.7452 9.85184C11.7374 9.79 11.79 9.73742 11.8518 9.74515Z" fill="#429ED7"/>
<path d="M7.14817 5.25485L5.37216 5.03285C5.26282 5.01918 5.25961 4.86187 5.3683 4.84375L6.56564 4.6442C6.60592 4.63748 6.63749 4.60592 6.6442 4.56564L6.84375 3.3683C6.86187 3.25961 7.01918 3.26282 7.03285 3.37216L7.25485 5.14817C7.26258 5.21001 7.21001 5.26258 7.14817 5.25485Z" fill="#429ED7"/>
<path d="M11.8518 5.25485L13.6278 5.03285C13.7372 5.01918 13.7404 4.86187 13.6317 4.84375L12.4344 4.6442C12.3941 4.63748 12.3625 4.60592 12.3558 4.56564L12.1562 3.3683C12.1381 3.25961 11.9808 3.26282 11.9672 3.37216L11.7452 5.14817C11.7374 5.21001 11.79 5.26258 11.8518 5.25485Z" fill="#429ED7"/>
</svg>
