<svg width="16" height="16" viewBox="0 0 16 16" xmlns="http://www.w3.org/2000/svg">
    <path
        d="M8.0858 2.20709C8.86685 1.42604 10.1332 1.42605 10.9142 2.20709L14.7929 6.08577C15.574 6.86682 15.574 8.13315 14.7929 8.9142L9.29291 14.4142C8.91784 14.7893 8.40913 15 7.8787 15H5.12134C4.5909 15 4.0822 14.7893 3.70712 14.4142L1.20712 11.9142C0.426075 11.1332 0.426077 9.86682 1.20712 9.08577L8.0858 2.20709ZM8.74604 13.5469L3.45314 8.25397L1.91423 9.79288C1.52371 10.1834 1.52371 10.8166 1.91423 11.2071L4.41423 13.7071C4.60177 13.8946 4.85612 14 5.12134 14H7.8787C8.14391 14 8.39827 13.8946 8.5858 13.7071L8.74604 13.5469Z" />
</svg>