<svg width="16" height="16" viewBox="0 0 16 16" xmlns="http://www.w3.org/2000/svg">
    <path
        d="M3.5 0.5C3.5 0.223858 3.72386 0 4 0H12C12.2761 0 12.5 0.223858 12.5 0.5C12.5 0.776142 12.2761 1 12 1H8.75224L12.3882 7.26721C12.69 7.78744 12.3451 8.5 11.6919 8.5H8.75224L12.3882 14.7672C12.69 15.2874 12.3451 16 11.6919 16H4.30813C3.65488 16 3.31002 15.2874 3.61183 14.7672L7.24776 8.5H4.30813C3.65488 8.5 3.31002 7.78744 3.61183 7.26721L7.24776 1H4C3.72386 1 3.5 0.776142 3.5 0.5ZM4.63288 15H11.3671L8 9.19613L4.63288 15ZM4.63288 7.5H11.3671L8 1.69613L4.63288 7.5Z" />
</svg>