<svg width="16" height="16" viewBox="0 0 16 16" xmlns="http://www.w3.org/2000/svg">
<path d="M10.2857 3.42857C10.2857 5.32212 8.75069 6.85714 6.85714 6.85714C4.96359 6.85714 3.42857 5.32212 3.42857 3.42857C3.42857 1.53502 4.96359 0 6.85714 0C8.75069 0 10.2857 1.53502 10.2857 3.42857ZM6.85714 5.71429C8.11951 5.71429 9.14286 4.69094 9.14286 3.42857C9.14286 2.16621 8.11951 1.14286 6.85714 1.14286C5.59478 1.14286 4.57143 2.16621 4.57143 3.42857C4.57143 4.69094 5.59478 5.71429 6.85714 5.71429Z" />
<path d="M7.14978 13.7143C7.02073 13.3492 6.93174 12.9651 6.88809 12.5674H1.14286C1.14449 12.2854 1.31858 11.4405 2.09382 10.6653C2.83926 9.91983 4.24101 9.14286 6.85713 9.14286C7.15484 9.14286 7.43683 9.15292 7.70391 9.17185C7.96124 8.78175 8.27026 8.42877 8.62124 8.12267C8.08809 8.04362 7.5017 8 6.85714 8C1.14286 8 0 11.4286 0 12.5714C0 13.7143 1.14286 13.7143 1.14286 13.7143H7.14978Z" />
<path d="M11.2977 8.52519C11.5041 7.82494 12.4959 7.82493 12.7023 8.52519L12.7524 8.69501C12.8843 9.14245 13.3953 9.35414 13.805 9.13101L13.9604 9.04632C14.6015 8.69711 15.3029 9.39846 14.9537 10.0396L14.869 10.195C14.6459 10.6047 14.8575 11.1157 15.305 11.2476L15.4748 11.2977C16.1751 11.5041 16.1751 12.4959 15.4748 12.7023L15.305 12.7524C14.8575 12.8843 14.6459 13.3953 14.869 13.805L14.9537 13.9604C15.3029 14.6015 14.6015 15.3029 13.9604 14.9537L13.805 14.869C13.3953 14.6459 12.8843 14.8575 12.7524 15.305L12.7023 15.4748C12.4959 16.1751 11.5041 16.1751 11.2977 15.4748L11.2476 15.305C11.1157 14.8575 10.6047 14.6459 10.195 14.869L10.0396 14.9537C9.39846 15.3029 8.69711 14.6015 9.04632 13.9604L9.13101 13.805C9.35414 13.3953 9.14245 12.8843 8.69501 12.7524L8.52519 12.7023C7.82494 12.4959 7.82493 11.5041 8.52519 11.2977L8.69501 11.2476C9.14245 11.1157 9.35414 10.6047 9.13101 10.195L9.04632 10.0396C8.69711 9.39846 9.39846 8.69711 10.0396 9.04632L10.195 9.13101C10.6047 9.35414 11.1157 9.14245 11.2476 8.69501L11.2977 8.52519ZM13.7143 12C13.7143 11.0532 12.9468 10.2857 12 10.2857C11.0532 10.2857 10.2857 11.0532 10.2857 12C10.2857 12.9468 11.0532 13.7143 12 13.7143C12.9468 13.7143 13.7143 12.9468 13.7143 12Z" />
</svg>
