<svg width="16" height="16" viewBox="0 0 16 16" xmlns="http://www.w3.org/2000/svg">
<path d="M14.2368 12.9035C14.2993 12.6674 14.3048 12.4084 14.2366 12.1397C13.6391 9.78343 11.9402 8.27014 9.92788 7.59982C9.58923 7.48701 9.2417 7.39807 8.88906 7.33301L10.6433 9.1604C11.5188 9.66051 12.2475 10.3859 12.7214 11.325L14.2368 12.9035Z" />
<path d="M6.72368 8.37792C4.39927 8.61079 2.34208 10.0004 1.72833 12.4206C1.69361 12.5575 1.72644 12.6635 1.79945 12.7507C1.88268 12.8501 2.01321 12.9143 2.15055 12.9143H11.0786L12.1758 14.0572H2.15055C1.17889 14.0572 0.35945 13.1692 0.620536 12.1397C1.21808 9.78343 2.91702 8.27014 4.92929 7.59982C5.20118 7.50925 5.47879 7.43406 5.76017 7.37427L6.72368 8.37792Z" />
<path d="M4.24523 2.49569C4.75136 1.23393 5.98592 0.342896 7.42859 0.342896C9.32213 0.342896 10.8572 1.87792 10.8572 3.77147C10.8572 4.79573 10.408 5.7151 9.69592 6.34335C9.3707 6.63028 8.99062 6.85649 8.57344 7.00424L7.65375 6.04623C8.81043 5.93313 9.7143 4.95785 9.7143 3.77147C9.7143 2.5091 8.69095 1.48575 7.42859 1.48575C6.27409 1.48575 5.31951 2.34168 5.1648 3.45357L4.24523 2.49569Z" />
<path fill-rule="evenodd" clip-rule="evenodd" d="M14.4449 15.5958L0.730649 1.31006L1.55509 0.518592L15.2694 14.8043L14.4449 15.5958Z" />
</svg>
