<svg width="16" height="16" viewBox="0 0 16 16" xmlns="http://www.w3.org/2000/svg">
<path d="M7.92041 7.96933C9.81395 7.96933 11.349 6.4343 11.349 4.54075C11.349 2.64721 9.81395 1.11218 7.92041 1.11218C6.02686 1.11218 4.49183 2.64721 4.49183 4.54075C4.49183 6.4343 6.02686 7.96933 7.92041 7.96933ZM10.2061 4.54075C10.2061 5.80312 9.18277 6.82647 7.92041 6.82647C6.65804 6.82647 5.63469 5.80312 5.63469 4.54075C5.63469 3.27839 6.65804 2.25504 7.92041 2.25504C9.18277 2.25504 10.2061 3.27839 10.2061 4.54075Z" />
<path d="M14.7775 13.6836C14.7775 14.8265 13.6347 14.8265 13.6347 14.8265H2.20612C2.20612 14.8265 1.06326 14.8265 1.06326 13.6836C1.06326 12.5408 2.20612 9.11218 7.92041 9.11218C13.6347 9.11218 14.7775 12.5408 14.7775 13.6836ZM13.6347 13.6796C13.633 13.3976 13.4589 12.5527 12.6837 11.7774C11.9383 11.032 10.5365 10.255 7.92039 10.255C5.30427 10.255 3.90252 11.032 3.15709 11.7774C2.38184 12.5527 2.20775 13.3976 2.20612 13.6796H13.6347Z" />
</svg>
