<svg width="28" height="28" viewBox="0 0 28 28" xmlns="http://www.w3.org/2000/svg">
<path d="M18.7362 5.76403C17.2111 5.42743 15.6264 5.24998 14.0001 5.24998C9.20294 5.24998 4.7664 6.79418 1.16049 9.41263C0.737911 9.71948 0.707802 10.3326 1.07708 10.7019C1.38953 11.0144 1.88745 11.0458 2.24592 10.7875C5.55283 8.40408 9.61251 6.99998 14.0001 6.99998C15.1033 6.99998 16.1857 7.08874 17.2407 7.25951L18.7362 5.76403Z"/>
<path d="M14.0002 10.5C10.6664 10.5 7.56164 11.4813 4.95928 13.1708C4.51068 13.4621 4.47124 14.0961 4.84944 14.4743C5.15162 14.7765 5.63113 14.8184 5.99105 14.588C7.80754 13.4252 9.89347 12.6463 12.1343 12.3659L14.0002 10.5Z"/>
<path d="M18.5436 12.9566L19.9167 11.5836C21.0191 12.0035 22.0654 12.5374 23.041 13.1708C23.4896 13.4621 23.529 14.0961 23.1508 14.4743C22.8487 14.7765 22.3691 14.8184 22.0092 14.588C20.9396 13.9033 19.7767 13.3517 18.5436 12.9566Z"/>
<path d="M14.0003 17.5L15.6339 15.8664C16.8851 16.0464 18.0705 16.43 19.1554 16.9825C19.6541 17.2365 19.7265 17.8986 19.3308 18.2943L19.3045 18.3206C19.0238 18.6013 18.5912 18.654 18.2348 18.4792C16.957 17.8521 15.5198 17.5 14.0003 17.5Z"/>
<path d="M22.5834 8.91688L23.8915 7.60876C24.9241 8.13319 25.9096 8.73716 26.8398 9.41263C27.2624 9.71948 27.2925 10.3326 26.9232 10.7019C26.6108 11.0144 26.1128 11.0458 25.7544 10.7875C24.7614 10.0718 23.7006 9.44445 22.5834 8.91688Z"/>
<path d="M15.7861 20.6143C16.2015 20.8612 16.198 21.4271 15.8563 21.7688L14.6189 23.0063C14.2771 23.348 13.7231 23.348 13.3814 23.0063L12.144 21.7688C11.8023 21.4271 11.7988 20.8612 12.2142 20.6143C12.737 20.3035 13.3477 20.125 14.0001 20.125C14.6525 20.125 15.2632 20.3035 15.7861 20.6143Z"/>
<path d="M23.4065 3.28123C23.7689 2.91879 24.3565 2.91879 24.719 3.28123C25.0814 3.64366 25.0814 4.23129 24.719 4.59373L5.90647 23.4062C5.54403 23.7687 4.95641 23.7687 4.59397 23.4062C4.23154 23.0438 4.23154 22.4562 4.59397 22.0937L23.4065 3.28123Z"/>
</svg>
